<svg id="Layer_1" data-name="Layer 1" xmlns="http://www.w3.org/2000/svg" viewBox="0 0 135.07 59.73"><defs><style>.cls-1{fill:#e9f4f6;}.cls-2{fill:#fff;}.cls-3{fill:#ceeaf0;}</style></defs><path class="cls-1" d="M132.17,44.89a11,11,0,0,1-6.52,3.65c-3.22.56-4-.84-7.69-.26a18.63,18.63,0,0,0-6,2.22c-2.49,1.28-2.91,2-5.35,3.39a38,38,0,0,1-6.26,2.74C94,58.75,84.49,57.83,76.58,54c-5.3-2.6-6.31-4.79-9.77-4.46s-4.58,2.69-9.63,3.07a16.69,16.69,0,0,1-6-.62A21.14,21.14,0,0,1,49,51.05c-4.45-1.61-7.9,2.79-13.39,2.43-2.08-.14-2.69-.84-5.21-1.79C19.25,47.5,12.66,54.25,5.62,49.82c-3.26-2.06-6-6-5.55-9.57.67-4.9,7.33-8.72,12.64-8.38,4.08.26,5.35,2.84,8.24,2s3.2-3.85,6.35-8a27.94,27.94,0,0,1,8.91-7.7c10-5,19.92,4.66,25.68-.3,2.87-2.48.79-5.21,4.64-9.79A18.08,18.08,0,0,1,78.17,2c.46,0,7.63-.43,12.58,4.6a18.86,18.86,0,0,1,4,6.68c2.36,5.93.67,8.23,2.44,9.81,3.38,3,10-5,20.08-3.39,7.94,1.25,12.9,7.6,13.57,8.49A16.44,16.44,0,0,1,134,34.57C134.25,35.94,135.34,41,132.17,44.89Z"/><path class="cls-2" d="M91.14,19.34A28.77,28.77,0,0,1,96,27.81a46.16,46.16,0,0,1,12.72-4.61c5.35-1.08,10.29-2.07,15.51.22a18.93,18.93,0,0,1,8,7c-.53-1.73-3-9-10.14-12.72a21.5,21.5,0,0,0-10.38-2.32,24.06,24.06,0,0,0-7.52,1.35,20.63,20.63,0,0,0-5.51,3.18A24.57,24.57,0,0,0,93.42,8.11C92,6.36,87.92,1.5,80.87.31A18.29,18.29,0,0,0,69.2,2a21.28,21.28,0,0,0-7.44,6.94,21,21,0,0,0-1.5,2.68A27.38,27.38,0,0,0,42.84,7.74c-1.6.19-12.16,1.68-18.5,11.12a25.53,25.53,0,0,0-4.15,11.62,15,15,0,0,0-6.84-1.86c-.95,0-6.44-.13-10.12,3.85A12.84,12.84,0,0,0,.08,42a11.81,11.81,0,0,1,2.14-5,11,11,0,0,1,4.89-3.44,12.3,12.3,0,0,1,8.08.08A14,14,0,0,1,21.61,38,39.29,39.29,0,0,1,26,30.44c3-4.07,8.25-11.2,16.05-11.88,3.81-.34,7.25,1,10.28,2.09a34,34,0,0,1,6.92,3.57A30.06,30.06,0,0,1,71.86,13.69c2.67-1.15,5.29-2.24,8.61-1.75C85.56,12.67,88.82,16.58,91.14,19.34Z"/><path class="cls-3" d="M107.9,54.38c3.07-2.05,2.47-2.08,4.61-3.61,5.44-3.89,13.69,1.41,19-3.07a10.43,10.43,0,0,0,3.49-7.13,10.32,10.32,0,0,0-.85-4.71,10.66,10.66,0,0,1-11.58,9.26,10.5,10.5,0,0,1-6-2.95A17.66,17.66,0,0,1,106.34,46c-3.44.06-6-1.07-9-2.27a32.88,32.88,0,0,1-8.72-5.24,17.5,17.5,0,0,1-12.29,5.61c-8.85.13-13.92-7-14.33-7.56-1.15,3.77-4.53,5.79-7.2,5.13-2.39-.58-3.49-3.11-3.64-3.48C48.63,44.2,42.93,48,37.08,47.7s-9.49-4.6-10.14-5.4A6,6,0,0,1,20.42,45a6.25,6.25,0,0,1-4-3.88c-.18.35-2.6,5.33-8,6a10.25,10.25,0,0,1-7.29-2,10.43,10.43,0,0,0,2.75,4.27C10.35,55.26,25,52,29.08,53.29a27.46,27.46,0,0,0,3.64.82c.39.06.82.1,1.35.13,5.26.27,8.48-1.83,12.75-1,.73.14.94.28,2.08.47a31.44,31.44,0,0,0,5.76.4c4.81-.11,5.89-1.24,9.15-1.35s5.57.76,9.39,2.33c4.41,1.82,9,3.71,13.51,4.35C97.69,61,106.81,55.11,107.9,54.38Z"/></svg>