<svg id="Layer_1" data-name="Layer 1" xmlns="http://www.w3.org/2000/svg" viewBox="0 0 158.84 69.3"><defs><style>.cls-1{fill:#f2f7f8;}.cls-2{fill:#fff;}.cls-3{fill:#ceeaf0;}</style></defs><path class="cls-1" d="M85.49,10.26a126.82,126.82,0,0,1,13-7.2,21.9,21.9,0,0,0-6.38-.71c-.63,0-9,.75-13.72,7.12-2.15,2.89-3,6.16-3.71,8.11C78.45,15.74,81.93,12.51,85.49,10.26Z"/><path class="cls-1" d="M154.19,33.23a10.09,10.09,0,0,0-4.78-2c-4.87-.79-7.38,2.29-9.35.93-1.48-1-.28-2.86-1.76-6.2a12.74,12.74,0,0,0-6.66-6.33,13.16,13.16,0,0,0-8.67.12c-5.33,1.67-7,5.28-8.81,4.47-1.65-.72-.81-3.7-2.5-8.56a22.12,22.12,0,0,0-4.76-7.88A17.33,17.33,0,0,0,101,3.88,120.56,120.56,0,0,0,78.56,17.21c-7.75,5.76-16.88,2.44-25.84,3.3C46.54,21.1,41.3,24.3,36.47,28c-2.23,1.7-3.37,3.46-5.15,5.55-.44.52-1.2,1.57-2,1.78-1.79.47-4.6-.91-6.8-2,.51,1.56,1.46,2.36,1.22,2.64s-1.55-.61-3.34-1.26a14,14,0,0,0-5.14-.72,16,16,0,0,0-8,2.22l-.33.2c-.7.45-7,4.57-6.95,11.07a11.91,11.91,0,0,0,4.91,9.32c3.16,2.23,5,.79,11.28,3.3C20,61.52,19.52,62.12,23,63.4a32.17,32.17,0,0,0,12,1.88A30.59,30.59,0,0,0,46.3,63.59C51.16,61.77,54,59,57.7,60.15c1,.29,1,.59,2.55,1.05a19.56,19.56,0,0,0,7.1.74c5.94-.46,7.31-3.23,11.34-3.62,4.67-.45,7.08,3.42,11.52,5.25,15.65,6.44,37.87,2.86,44.3-7.66,1.25-2,1.47-3.64,3.54-5.2,5-3.79,10.68.23,15.94-3.61.51-.37,3.56-2.67,3.84-6.37C158.15,36.46,154.53,33.5,154.19,33.23Z"/><path class="cls-2" d="M154.31,50.72c-4.66,2.29-13.5-1.25-15.51.42a8.93,8.93,0,0,0-1,1c-.86,1.11-.87,2.14-3.25,4.78-3.92,4.34-8.44,6.36-8.62,6.1s4.89-2.87,9.26-8.79c1.88-2.54,8.23-11.15,5.29-20.35a17.36,17.36,0,0,0-6.8-9c-7.41-4.86-15.64-1.59-16.21-1.36a17.55,17.55,0,0,0-6.57,4.81,20,20,0,0,0-6.54-8.83,20.63,20.63,0,0,0-10.48-4,26.1,26.1,0,0,0-15.48,3.1c-4.94,2.65-5.71,5.07-8.25,6.58a9.2,9.2,0,0,1-2.42,1,9.57,9.57,0,0,1-2.4.32c-2.23-4.1-6.67-5.78-9.92-4.43-3,1.24-3.93,4.64-4.06,5.12a9.86,9.86,0,0,0-4.52-1.54,10.93,10.93,0,0,0-6.62,1.9c-5.38,3.21-7.33,9.08-7.88,11a6.3,6.3,0,0,0-4.84-1c-2.17.63-2.51,2.66-4.15,2.8-2.07.17-2.93-2.93-5.52-4.55C16,34.69,12.76,34,7,36.35a16.86,16.86,0,0,1,8.29-2.42,12.68,12.68,0,0,1,5.14.72,10.63,10.63,0,0,1,1.29.62,7.46,7.46,0,0,1-.21-2.74,6.91,6.91,0,0,1,1.35-3.48c1.61-2.09,4.67-3.23,6.93-2.41,1.61.58,2.43,2,2.79,1.79s-.67-1.53-.55-3.31c.16-2.56,2.54-4.23,2.88-4.45a5.81,5.81,0,0,1,5-1.06,5.24,5.24,0,0,1,2.63,2,10.37,10.37,0,0,1,9.05-10.94,10.28,10.28,0,0,1,6.73,1.72,10.85,10.85,0,0,1,3.64,4.09,5.27,5.27,0,0,1,2.3-2.44,5.59,5.59,0,0,1,5,.21,5.84,5.84,0,0,1,2.59,3.14A20.93,20.93,0,0,1,77.09,6.54C81.41,2,88.35-1.06,95.26.35c6.24,1.26,10,5.54,11.64,7.42a25.72,25.72,0,0,1,4.76,7.88A23.4,23.4,0,0,1,113,21.79a20.71,20.71,0,0,1,9.46-4.08,17.06,17.06,0,0,1,9.25.78A16.7,16.7,0,0,1,139,24.4,18.9,18.9,0,0,1,142.32,32a12.25,12.25,0,0,1,7.09-.75c3.76.76,8.2,3.63,9.22,8.55C159.49,44,157.7,49.05,154.31,50.72Z"/><path class="cls-3" d="M150.83,36c-4-2.29-8.5-.84-9.9-.38-4.33,1.4-4.13,3.41-7.47,3.89-3.85.55-4.72-2.06-8.66-1.55-3.63.46-3.86,2.82-7.69,3.37-2.67.38-3.06-.69-7.84-1.54a31.52,31.52,0,0,0-11.35-.15,26.85,26.85,0,0,0-8.42,3.15c-1.13,1.81-3.65,6-8.75,7.86a30.71,30.71,0,0,1-12.43,1.56c-2.88-.18-15-1.74-16.32-6.41-3.84,3.07-7.84,6.22-12.72,7.29-2.42.54-7.6,1.61-12.88-1.08a16.53,16.53,0,0,1-5.2-4.19,13.31,13.31,0,0,1-7.1,1.3c-7.52-.8-11.18-8.19-11.46-8.77A14.32,14.32,0,0,0,0,47.42c-.07.91-.44,7.13,4.54,11.4a13.93,13.93,0,0,0,11.35,2.91A30.6,30.6,0,0,0,36,69.3a30.85,30.85,0,0,0,21.58-9.38,14.63,14.63,0,0,0,21.75-.81,57.81,57.81,0,0,0,10.81,5.16C95,66,113,72.4,129.42,63.48a39,39,0,0,0,11.82-10c6.15,2.11,12.21-.24,14.16-4.39,1.46-3.1.51-7-1-9.52A10,10,0,0,0,150.83,36Z"/><path class="cls-3" d="M134.53,53.54a23.86,23.86,0,0,1-5.05,5.66c-7.4,6.17-19.33,8.69-23.33,4.5C105,62.45,104.81,61,103,60.2c-2.18-.92-3.85.42-6.13-.52a6.26,6.26,0,0,1-3-2.87A7.6,7.6,0,0,0,97.42,58a8.23,8.23,0,0,0,6.08-2.41,23.69,23.69,0,0,0,10.77,5.08c2.5.46,9.35,1.32,15.17-2.46A29.32,29.32,0,0,0,134.53,53.54Z"/></svg>