<svg id="Layer_1" data-name="Layer 1" xmlns="http://www.w3.org/2000/svg" viewBox="0 0 96.45 47.81"><defs><style>.cls-1{fill:#fff;}.cls-2{fill:#e9f4f6;}.cls-3{fill:#ceeaf0;}</style></defs><path class="cls-1" d="M16.66,35.82c23.5-5.61,24.86-5.94,28-5.87a59,59,0,0,1,16.29,2.38c2.55.87,5.58,2.19,10.08,2.26,2.73,0,5.66,0,8-2s4.13-6.29,2.42-9-6-2.51-6.46-2.48c-3.06.17-5.33,1.92-5.54,1.64s2.22-1.25,3-3.33c.88-2.44-.72-5.69-2.85-7.37-2.82-2.2-7.21-2.16-10.92.2a11.36,11.36,0,0,0-1.28-6.23A11.78,11.78,0,0,0,50.54.55C45-1.21,40.26,1.76,39.26,2.39a15.9,15.9,0,0,0-5.11,5.38,18.1,18.1,0,0,0-2.33,5.9,12.37,12.37,0,0,0-8.43-1.31,12.62,12.62,0,0,0-6.69,4.06,14.67,14.67,0,0,0-3.41,6.43,9.32,9.32,0,0,0-7.38-1.72,7.82,7.82,0,0,0-4.45,2.73,6.66,6.66,0,0,0-.84,1.45,7.77,7.77,0,0,0-.47,2.51c0,1.82,1.19,6,4,8C7.15,38,11.08,37.15,16.66,35.82Z"/><path class="cls-2" d="M52,10.93a13.41,13.41,0,0,1,6.13,3.79A9.12,9.12,0,0,1,63,13.67a7.38,7.38,0,0,1,5.42,2.45,6.06,6.06,0,0,1,1.3,3.06c.19,1.7-.53,2.66-.09,3,.59.51,2-1.25,4.27-1.69,2.68-.51,6.59.61,7.87,3.61a6.72,6.72,0,0,1-.38,5.32,6.08,6.08,0,0,1,6.17,1.87c1.34,1.59,2,4.14.94,5.83C87,39.52,82.75,39.35,81,39.28c-2.91-.12-4-1-6.35-.26a15.16,15.16,0,0,0-3.05,1.51,23.3,23.3,0,0,0-2.74,2.06c-3.83,2.94-9.64,1.78-10.54,1.6-1.82-.37-1.25-.6-3.7-1.19a17.11,17.11,0,0,0-8.84-.24,13.44,13.44,0,0,0-2.24.86C39.05,45.75,27.43,46.7,15.41,42c-5.6-2.19-9.82-3.42-12.73-7.57-.77-1.1-4-5.75-2.06-9.11,1.32-2.23,4.4-2.94,6.64-2.72a8.31,8.31,0,0,1,5.9,3.67,12.16,12.16,0,0,1,5-6.12,11.09,11.09,0,0,1,5.1-1.65,11.91,11.91,0,0,1,8.81,3.7c.85-1.83,3.8-7.59,10.29-10.26A14.31,14.31,0,0,1,52,10.93Z"/><path class="cls-3" d="M95.44,35a4.14,4.14,0,0,0-3.81-1c-1.07.33-1.25,1-1.87.91-1-.17-.76-1.9-2.23-3.6a6.48,6.48,0,0,0-4.31-2.12,5.66,5.66,0,0,0-1.86.25,7.7,7.7,0,0,1-2.24,4.74,8.36,8.36,0,0,1-6.69,1.87c-3.37-.52-4.29-3-6.41-2.39-1.75.46-1.78,2.3-3.54,2.69-1.6.35-2.38-1-4.71-2.1-5.22-2.51-11.63-.67-14.24,1.34a7.33,7.33,0,0,0-.81.64c-1.17,1.14-2.19,3-4.52,3.52a6.39,6.39,0,0,1-3.77-.45,11.19,11.19,0,0,1-4.6,3.57,12.46,12.46,0,0,1-3.77.79c-3.77.17-9.23-2.57-14.36-7.59a11,11,0,0,1-4.77-.33,11.42,11.42,0,0,1-6-4.43,25.62,25.62,0,0,0,5.32,7.83c8.67,8.59,24.2,11,33.94,6.34,2-.92,3.78-2.16,6.91-2.44,4.26-.39,5.24,1.54,11.81,2.44,4.13.57,7.41,1,9.82-1,1.8-1.45,1.61-3,3.36-3.51,2.1-.6,3.53,1.32,6.53.88a17.28,17.28,0,0,0,2.66-.63c2.61-.92,2.78-1.38,4-1.53s1.68.32,3.46.62c.51.08,5.35.9,7.07-1.16A3.14,3.14,0,0,0,95.44,35Z"/></svg>