<svg xmlns="http://www.w3.org/2000/svg" xmlns:xlink="http://www.w3.org/1999/xlink" viewBox="0 0 185.37 90"><defs><style>.cls-1,.cls-12,.cls-6{fill:none;}.cls-2{fill:#97e3ff;}.cls-3{fill:#e8f5fc;}.cls-4{fill:#67caff;}.cls-5{fill:#fff;}.cls-6{stroke:#001847;stroke-width:3px;}.cls-12,.cls-6{stroke-linecap:round;stroke-linejoin:round;}.cls-7{fill:#31a7db;}.cls-8{fill:#00226d;}.cls-9{clip-path:url(#clip-path);}.cls-10{fill:#e3f6ff;}.cls-11{clip-path:url(#clip-path-2);}.cls-12{stroke:#ffb3d0;stroke-width:1.5px;}</style><clipPath id="clip-path"><circle class="cls-1" cx="80.93" cy="39.68" r="6.18"/></clipPath><clipPath id="clip-path-2"><circle class="cls-1" cx="112.49" cy="39.68" r="6.18"/></clipPath></defs><g id="OBJECTS"><path class="cls-2" d="M166.83,43.66h-.29a18.54,18.54,0,0,0-18.25-15.31,18.74,18.74,0,0,0-4.53.56,30.11,30.11,0,0,0-27.56-18.1,30.09,30.09,0,0,0-52,10.94A30,30,0,0,0,31.74,42.32a9.64,9.64,0,0,0-14.66,8.22,9.77,9.77,0,0,0,.19,1.89,12.88,12.88,0,0,0-4.54-.83,12.73,12.73,0,1,0,6.2,23.84,18.54,18.54,0,0,0,32.22,4.8,30.23,30.23,0,0,0,16.66.51,30,30,0,0,0,43-2.68,25.68,25.68,0,0,0,44.28-1.53,18.54,18.54,0,1,0,11.76-32.88Z"/><path class="cls-3" d="M181.31,50.62a19.84,19.84,0,0,1-19.49,16.12c-2.11,0-6.62-.77-6.91-.69a19.84,19.84,0,0,1-36.86-6.5,30.72,30.72,0,0,1-48.64-1,12.6,12.6,0,0,1-23.47-2.62A18.54,18.54,0,0,1,17.29,66.26,18.59,18.59,0,0,1,.8,68.77,12.73,12.73,0,0,1,12.73,51.6a12.88,12.88,0,0,1,4.54.83,9.77,9.77,0,0,1-.19-1.89,9.64,9.64,0,0,1,14.66-8.22A30,30,0,0,1,64.18,21.76a30.08,30.08,0,0,1,52-10.94,30.08,30.08,0,0,1,27.56,18.11,18.55,18.55,0,0,1,22.79,14.74h.29A18.52,18.52,0,0,1,181.31,50.62Z"/><path class="cls-2" d="M37.23,47.67c-1.37-3.22-5.49-5.35-5.49-5.35a30.16,30.16,0,0,1,8.84-13.39A25,25,0,0,0,37.23,47.67Z"/><path class="cls-2" d="M73.2,26.69a13.15,13.15,0,0,0-9-4.93A30.13,30.13,0,0,1,74,6.87C65.89,17.24,72.74,26,73.2,26.69Z"/><path class="cls-4" d="M51.15,80.24a18.56,18.56,0,0,1-4.91,4.52,15,15,0,0,1-4.53-11.6A21.13,21.13,0,0,0,51.15,80.24Z"/><path class="cls-4" d="M78.6,73.16a18.48,18.48,0,0,1-5.38,11.51,30.73,30.73,0,0,1-5.42-3.91C72.1,81.16,78.6,73.16,78.6,73.16Z"/><path class="cls-4" d="M120.94,87.27a25.72,25.72,0,0,1-10.15-9.2l4.93-7.19S113.35,80.54,120.94,87.27Z"/><path class="cls-4" d="M163.81,80.5a18.43,18.43,0,0,1-8.74-4,12.08,12.08,0,0,0,1.26-6.93S166,71.6,163.81,80.5Z"/><path class="cls-5" d="M8,60.06c1.11-1.12,1.43-2.62.69-3.35s-2.23-.42-3.35.69S3.94,60,4.68,60.75,6.91,61.18,8,60.06Z"/><ellipse class="cls-5" cx="56.61" cy="28.67" rx="7.64" ry="4.59" transform="translate(-3.96 9.75) rotate(-9.51)"/><ellipse class="cls-5" cx="90.65" cy="10.44" rx="11.71" ry="7.05"/><path class="cls-5" d="M130.26,23.54c-1,2.06-4.6,2.34-7.93.64s-5.17-4.76-4.12-6.81,4.61-2.34,7.94-.64S131.32,21.49,130.26,23.54Z"/><path class="cls-5" d="M157.18,38.3c0,3-2.74,5.43-6.12,5.43s-6.12-2.43-6.12-5.43,2.74-5.43,6.12-5.43S157.18,35.3,157.18,38.3Z"/><path class="cls-5" d="M27.55,50.13c0,2.35-1.49,4.26-3.32,4.26s-3.32-1.91-3.32-4.26,1.49-4.27,3.32-4.27S27.55,47.77,27.55,50.13Z"/><path class="cls-6" d="M92.46,40.69s4.8,5.7,9.6,0"/><circle class="cls-7" cx="80.93" cy="39.68" r="6.18"/><path class="cls-8" d="M84.39,39.68a3.46,3.46,0,1,1-3.46-3.46A3.45,3.45,0,0,1,84.39,39.68Z"/><g class="cls-9"><path class="cls-10" d="M87.11,36.53a2.62,2.62,0,1,1-2.62-2.62A2.62,2.62,0,0,1,87.11,36.53Z"/><path class="cls-10" d="M80,42.29a1.19,1.19,0,1,1-1.18-1.19A1.18,1.18,0,0,1,80,42.29Z"/></g><circle class="cls-7" cx="112.49" cy="39.68" r="6.18"/><path class="cls-8" d="M116,39.68a3.46,3.46,0,1,1-3.46-3.46A3.45,3.45,0,0,1,116,39.68Z"/><g class="cls-11"><path class="cls-10" d="M118.67,36.53a2.62,2.62,0,1,1-2.62-2.62A2.63,2.63,0,0,1,118.67,36.53Z"/><path class="cls-10" d="M111.52,42.29a1.19,1.19,0,1,1-1.19-1.19A1.18,1.18,0,0,1,111.52,42.29Z"/></g><path class="cls-12" d="M58.76,40.67s2.93-1.76,3-1.71-2.09,5.2-2,5.26,8-4.8,8-4.65-4.32,7-4.26,7.08,8.2-4.93,8.29-4.78S70,47.39,70.06,47.49s2.93-1.75,3-1.71"/><path class="cls-12" d="M121.88,42.28c.05.09,5-3,5-2.89s-5.31,7-5.25,7.11,12.11-7.29,12.24-7.06-5.82,7.82-5.76,7.94,6.84-4.12,6.92-4"/></g></svg>