<svg id="Capa_1" data-name="Capa 1" xmlns="http://www.w3.org/2000/svg" viewBox="0 0 512 341.33"><defs><style>.cls-1{fill:#57ad93;stroke:#000;stroke-miterlimit:10;}</style></defs><rect class="cls-1" width="512" height="341.33"/><path d="M485.74,0H26.26A26.33,26.33,0,0,0,0,26.26V315.08a26.33,26.33,0,0,0,26.26,26.25H485.74A26.33,26.33,0,0,0,512,315.08V26.26A26.34,26.34,0,0,0,485.74,0Zm-9.85,19.69L271.1,173.29c-3.68,2.81-9.33,4.56-15.1,4.53s-11.42-1.72-15.1-4.53L36.11,19.69ZM366.5,183.43,478.09,321.27a4.31,4.31,0,0,0,.37.37H33.54c.12-.13.26-.23.37-.37L145.5,183.43A9.85,9.85,0,0,0,130.19,171L19.69,307.53V32l209.4,157a47,47,0,0,0,53.82,0L492.3,32V307.53L381.81,171a9.85,9.85,0,0,0-15.31,12.4Z"/></svg>