<svg xmlns="http://www.w3.org/2000/svg" xmlns:xlink="http://www.w3.org/1999/xlink" viewBox="0 0 3740.99 2719.93"><defs><style>.cls-1{fill:url(#linear-gradient);}.cls-2{fill:#f2f7f8;}.cls-3{fill:#fff;}.cls-4{fill:#ceeaf0;}.cls-5{fill:#d1a293;}.cls-6{fill:#c9927a;}.cls-7{fill:#844e3e;}.cls-8{fill:#4780c6;}.cls-9{fill:#a86e5a;}.cls-10{fill:#70a57a;}.cls-11{fill:#628e6b;}.cls-12{fill:#86a58b;}</style><linearGradient id="linear-gradient" y1="1366.84" x2="3740.99" y2="1366.84" gradientUnits="userSpaceOnUse"><stop offset="1" stop-color="#fff"/><stop offset="1"/></linearGradient></defs><g id="Layer_3" data-name="Layer 3"><rect class="cls-1" y="13.76" width="3740.99" height="2706.17"/><path class="cls-2" d="M2456.76,446.33c-51,36.56-105.3-2.63-153.84,33.44-20,14.88-22.32,30.25-34.5,49.8-62.81,100.74-277.06,133.43-427.31,70.14-42.62-18-65.51-55.51-110.43-51.55-38.87,3.43-52.33,30.06-109.59,33.93a190.68,190.68,0,0,1-68.32-7.62,116.42,116.42,0,0,1-24.46-10.4c-25.71-15-26.55-19.48-35.82-21-22.91-3.62-29.86,33.8-74.24,53.2-8.33,3.64-35,14.88-59.68,4-3.4-1.5-20-8.84-22.08-22-2-12.76,11-23.58,8.84-25.79-2.45-2.53-19.91,11.12-28.17,17-36,25.62-96,44.84-123.72,23-9.86-7.77-18-22.59-17.26-36.66.82-15.59,12.1-23.42,9-27.95-4.72-6.89-32.23,9-68.45,16.93-23.43,5.12-53.74,11.75-80.58,1.07-38.76-15.43-63.47-64.25-62.12-109.12,2-67.14,62.24-102.8,71-108,34-20.16,68.47-20.76,76.89-20.72,11,0,28.63-.21,49.37,7.4,17.22,6.32,29.51,15.38,32.13,12.37s-8.5-11.69-12.76-29.34c-1.25-5.16-5.14-20.82,2.26-33.5,12.15-20.79,43.91-20.17,47.8-20.06,26.63.77,42.64,17.33,48.18,11.62,4.23-4.37-5.4-13.72-5.11-32,0-2.91.63-22.14,14.15-35.85s34.24-16.82,49.93-13.42c21.24,4.61,28,20.07,36.94,16.45,9.37-3.81,4.4-22,12.08-47.36,2.29-7.57,12.75-43.7,42.52-57.43,34.17-15.77,68.84,2.6,73.83,5.34,34.52,19,43.31,55.19,59.06,51.7,9.59-2.13,7.88-15.21,22.34-23.33,14.8-8.32,34.91-4.81,48.14,2.39,28.27,15.37,26.89,48.5,39.12,49.1,15.34.75,16.94-51.41,49.58-94.48,46.16-60.94,126.64-67,132.73-67.4,5.21-.32,86.67-4.09,142.28,53.43,28.61,29.58,41.92,66.6,45.18,76.25,15.87,46.95,7.51,75.5,23.34,82.57,17.86,8,33.78-26.64,85.29-42.27,13.63-4.13,47.38-14.38,83.45-.44,43.53,16.83,62.09,57.92,63.63,61.48,14,32.29,2.28,49.87,16.43,59.84,18.91,13.33,43.31-16.21,90.11-8.16,8.25,1.42,27.64,5,45.92,19.72,3.26,2.62,37.86,31.41,34.42,72.53C2491.24,420.88,2461.64,442.82,2456.76,446.33Z"/><path class="cls-3" d="M2011.45,633c-60.33,0-119.88-11.12-170.65-32.51-15.88-6.69-28.92-16-41.53-25-20.85-14.89-40.54-28.94-68.52-26.49-17.17,1.52-29.55,7.71-42.66,14.26-16.43,8.21-35,17.52-66.95,19.68a191.87,191.87,0,0,1-68.61-7.66,118.57,118.57,0,0,1-24.63-10.48c-11.3-6.57-17.94-11.23-22.34-14.31-5.78-4.06-8.18-5.74-13.2-6.53-10.92-1.72-18.12,6.31-28.09,17.44-10.32,11.52-23.16,25.85-45.69,35.7-23.13,10.11-43.43,11.46-60.34,4-13.18-5.82-21.2-13.83-22.56-22.58-1.3-8.32,3.47-15.75,6.63-20.66,1.13-1.76,2.68-4.17,2.43-4.69-1.55-1.59-17.17,9.86-22.3,13.62-1.78,1.3-3.42,2.5-4.81,3.49-38.88,27.66-97.61,44.3-124.7,22.94-9-7.13-18.38-21.85-17.56-37.36.45-8.67,4.08-15,6.73-19.62,2.05-3.59,3.53-6.17,2.4-7.82-2.35-3.44-13.25.36-27,5.16-11.17,3.89-25.07,8.73-40.55,12.11-24.06,5.26-54,11.8-81.05,1-37.14-14.78-64.07-62-62.64-109.9,1.93-64.56,57.64-100.54,71.36-108.66,72.66-43,152-4,158.21-.79-15.26-18.4-19.61-42.87-10.59-62.71,12.25-26.95,47-40.49,69.31-30.41a38.56,38.56,0,0,1,15,12.54c-1.82-9.12-7.27-42.1,12.54-70.22,4.49-6.38,13-18.12,28.84-23.83,1.18-.42,29.3-10,51.41,7.53a51,51,0,0,1,15.05,20.06c-7.09-46,17.22-90.47,57.68-107.84,42-18,92-2.71,115.36,30.1,10.43,14.67,13.63,30.2,14.66,40.66a54.35,54.35,0,0,1,69.35-39.41c21.82,6.78,31.34,25.22,33.86,30.1a65.26,65.26,0,0,1,6.61,37.45,163.09,163.09,0,0,1,14.7-57.52C1726.34,50.24,1796.8,12.11,1864.13,9.49c9.72-.38,88.66-2.43,142.92,53.68,27,28,40.74,62.86,45.37,76.56,7.12,21.08,9.34,38.14,11.12,51.85,2.15,16.53,3.44,26.52,11.77,30.24s16.28-2.37,28.38-11.56c12.61-9.59,29.89-22.72,56.35-30.75,14.26-4.33,47.65-14.46,84-.42,43.48,16.81,62.1,57.34,64.08,61.91,6.86,15.81,7.59,28,8.18,37.72.61,10.16,1,16.88,8,21.79,8.69,6.12,18.43,2.89,31.92-1.57,14.78-4.89,33.18-11,57.86-6.73,7.51,1.29,27.48,4.72,46.29,19.88,3.92,3.16,38.18,32,34.72,73.24-2.86,34.1-29.66,55.82-37.8,61.66-25.81,18.51-52.66,17.77-78.63,17.05-26.36-.73-51.25-1.41-75.21,16.38-13.81,10.27-19.07,20.72-25.15,32.82-2.67,5.32-5.44,10.82-9.14,16.76-29.88,47.93-96,83.26-181.43,97A482.78,482.78,0,0,1,2011.45,633Zm-274.3-85.91c7.33,0,20.62-3.24,63.07,27.07,12.54,9,25.51,18.21,41.21,24.82,71.93,30.31,161.59,39.92,246,26.39,85-13.61,150.67-48.68,180.3-96.2,3.67-5.88,6.41-11.35,9.07-16.63,6.18-12.29,11.51-22.9,25.64-33.4,24.41-18.13,50.75-17.41,76.23-16.7,25.7.71,52.27,1.44,77.63-16.75l.47.67-.47-.67c8-5.74,34.32-27.06,37.12-60.46,3.39-40.37-30.26-68.73-34.11-71.83-18.48-14.9-38.15-18.28-45.55-19.55-24.27-4.18-42.46,1.84-57.07,6.67-13.41,4.44-24,7.95-33.37,1.35-7.6-5.36-8-12.77-8.67-23-.57-9.63-1.3-21.62-8-37.16-1.95-4.5-20.31-44.47-63.17-61-35.81-13.84-68.82-3.83-82.92.45-26.18,8-43.32,21-55.83,30.49-12.11,9.2-20.85,15.86-30,11.75s-10.58-15-12.72-31.52c-1.77-13.64-4-30.61-11.05-51.53-12.64-37.41-35.45-66.66-45-75.95-55.29-53.88-136-43.62-143.69-42.52-6.58.94-82.7,12.84-117.25,68.39-6.71,10.8-19.88,36.15-31.48,63-12.91,29.84-19.1,50.47-27.14,49.93s-6.51-20.92-26-41.25c-4.72-4.91-14.76-15.35-29.31-18.45-28.17-6-52.7,19.9-55.37,22.79A135.35,135.35,0,0,0,1543,135.78c-12.44-8.21-54.64-36.06-94.45-18.46-28.93,12.8-40.12,42.32-43.42,51a103.92,103.92,0,0,0-4.35,57.53c-1.71-2.78-16.46-25.8-44-28-6.49-.53-21.09-.49-33.86,8.77-16.34,11.87-20,31.85-23.09,48.55a121.56,121.56,0,0,0-2,21.67,67.58,67.58,0,0,0-24.06-8.64c-7.47-1.14-30.18-4.61-44.51,9.77-14.69,14.73-10.42,38.67-9.77,42.34,4.41,24.74,23.54,37.51,20.63,41.25-3.21,4.12-25.64-12.36-49.94-21.71-38.11-14.66-87.91-14.5-129.19,6.51-13.76,7-64.52,32.86-73.82,87.93-7.34,43.55,13,94.9,49.25,110.87,32.82,14.45,77.91-.63,80.1-1.1,15.38-3.37,29.24-8.19,40.37-12.06,16.13-5.62,25.87-9,28.93-4.54,1.7,2.49,0,5.45-2.34,9.55-2.56,4.48-6.08,10.62-6.51,18.9-.79,14.92,8.23,29.11,16.94,36,26.5,20.9,84.35,4.34,122.75-23,1.37-1,3-2.18,4.78-3.48,14.84-10.87,22.29-15.66,24.45-13.43,1.24,1.28-.07,3.32-2.23,6.7-3,4.71-7.6,11.82-6.39,19.53,1.27,8.17,8.94,15.75,21.6,21.33,16.47,7.26,36.33,5.91,59-4,22.19-9.7,34.91-23.89,45.12-35.29,9.93-11.08,17.76-19.82,29.57-18,5.39.85,8.05,2.71,13.88,6.8,4.63,3.25,11,7.7,22.22,14.24A116.84,116.84,0,0,0,1553,573.68a189.92,189.92,0,0,0,68,7.6,154,154,0,0,0,33.32-5.74c14.09-4.13,19.71-8.08,33-13.77C1707.93,553,1721.62,547.11,1737.15,547.06Z"/><path class="cls-4" d="M1389.15,457.85c-46.53,15-77.74-33.46-165.92-53.22-71.27-16-119.28.36-129.67,4.11-20.82,7.53-71,25.65-78.7,66.92-3.51,18.67,2.1,40.26,15.24,54.62,29.61,32.34,91.58,18,99,16.14,22.65-5.55,38.64-15.75,43.82-9.73,5.37,6.25-9.39,20.07-8.4,40.16,1.07,21.69,19.85,37.14,28.84,44.54,43.35,35.72,135.07,34.89,184.37,33.43,135.23-4,206.17-6.88,292.19-48.48a489.34,489.34,0,0,0,62.39-36.07,537.76,537.76,0,0,0,114.63,50.48c36.2,11.1,175.85,53.91,317-2.06,59.33-23.52,47.92-36.34,105.67-55.35,76.46-25.16,128-13.06,187.29-56.73,16.19-11.92,28.77-24.91,36.74-42.77,1-2.33,21.55-50.24-4.55-89.06-21.77-32.39-61.88-37.42-67.85-38.08-72-7.93-102.7,67.62-183.2,72-35.93,2-66.22-11.07-86.45-22.64-15.49,17-136.58,145.54-303.79,125.35C1787.52,504.18,1741,480,1711.06,460.2A358.56,358.56,0,0,1,1643.13,489c-27.64,8.49-59.46,18.27-90.56,14.41-65.81-8.17-105.58-74.58-114.73-90.76C1429.75,427.39,1414.51,449.68,1389.15,457.85Z"/><path class="cls-3" d="M2910.35,432.87c-85.69,72.45-252.77,50.56-370.93-1a540.42,540.42,0,0,1-79.23-42.75c13.77,1.08,23.35-.55,26.36-6.15,7.77-14.43-27.4-56.66-70-72.52-40-14.92-77.56-3.12-92.45,2.54-3.26-14.11-12.84-46.64-42-74.64-6.36-6.09-46.28-43.1-101.92-40.92-28.59,1.12-49.92,12.23-81.48,28.67a340.61,340.61,0,0,0-49.8,31.69,248.75,248.75,0,0,0-86-36.22c-18.86-4-80.6-16.13-146.71,14.18-14.68,6.73-60.32,29.78-93.44,78.72-30.9,45.68-29.09,82.16-50.42,85.72-21.88,3.64-28.88-33.86-72.47-50.32-44-16.62-88,2.32-96.13,5.81-53,22.83-70.46,70.95-76.09,67.66-7.23-4.2,8.17-91,76.69-126.33,5.93-3.06,60.43-30.08,113.81-5.14a114.07,114.07,0,0,1,32.1,22.59,55.91,55.91,0,0,1-6-29.39c2.13-25.7,23.81-48.71,50.06-53.55,24.52-4.53,43.8,8.49,48.18,11.61-3.11-6.58-7.34-18.29-5.11-32,4.62-28.38,34.59-51.06,64.07-49.28,18.27,1.11,31.27,11.3,36.95,16.45,0-10.43,1.49-28.77,12.08-47.35,20-35.2,63.94-55.85,105.73-48.47,42.91,7.58,65.5,41.53,69.68,48.07,2.38-4.94,8.86-16.65,22.34-23.33,20.72-10.27,41.68-.59,48.13,2.39,29.17,13.47,37.78,44,39.13,49.1,4.76-19.9,16.87-58.53,49.57-94.48,13.66-15,58.63-62.88,132.74-67.4,5.21-.32,86.66-4.08,142.28,53.43,22.93,23.71,34.15,50.16,45.18,76.26a345.63,345.63,0,0,1,23.33,82.57c8.6-12,27.4-34.89,59.35-49.42,4.45-2,74.86-32.81,127.62,4.11,24.65,17.26,35.89,42.61,45.41,64.07a209.51,209.51,0,0,1,16.43,59.85c14.63-5.89,42.6-14.72,77.22-10.3,15.59,2,38,4.85,58.81,21.85,2.08,1.7,37.83,31.83,34.42,72.54C2945.22,402.81,2921.64,423.32,2910.35,432.87Z"/><path class="cls-4" d="M2368.51,388.13c39.85-13.35,80.09-2.2,91.68,1,48.43,13.41,79,45.73,90,36,4.51-4,1.08-10.76,1.79-25.28,0,0,1.6-32.25,24.86-59.76,25.34-30,73-40.35,112.06-28,43.93,13.86,63.5,52.22,69.62,64.21,37.61,73.72-7.43,149.68-10.29,154.31-5.07,8.22-24.12,37.4-63,59.16-17.41,9.74-44.58,21.23-237.91,14.14-56.32-2.06-84.48-3.09-105.45-5.14-35.11-3.43-48.12-6.48-74.58-5.14-42.06,2.12-46.73,11.7-78.45,12.86-11.48.41-88.51,3.11-108-41.16-12.8-29,3.51-68.4,28.45-88.5,18.43-14.85,39-17.12,55.45-18.72,51-5,61.42,19.14,94.85,14.63C2308.92,466.08,2307.36,408.61,2368.51,388.13Z"/><path class="cls-3" d="M2179.76,607.15c-30,0-83.41-5.34-99.41-41.62-13.27-30.12,4.51-69.71,28.6-89.13,18.93-15.25,40.2-17.32,55.73-18.83,27.81-2.71,43.63,3.2,57.59,8.42,11.86,4.43,22.09,8.26,37.24,6.22,24.27-3.27,35.91-18.67,49.39-36.51,13.35-17.67,28.49-37.7,59.45-48.07,26.54-8.89,57.48-8.55,92,1,23.49,6.51,42.44,17.26,57.67,25.9s26.44,15,31.87,10.22c2.6-2.29,2.35-5.72,1.93-11.4a104.51,104.51,0,0,1-.32-13.52c0-.32,1.87-32.74,25-60.07,24.64-29.15,72-41,112.62-28.19,44.14,13.93,63.54,52,69.92,64.47,38.15,74.76-8.31,151.59-10.31,154.83-8.44,13.68-27.88,39.57-63.2,59.33-20.27,11.35-53.75,21-238.18,14.21-56.28-2.06-84.5-3.09-105.48-5.14-9.3-.91-17.06-1.79-23.9-2.57-18.79-2.14-31.2-3.55-50.61-2.57a185.07,185.07,0,0,0-44.7,7.23c-9.62,2.61-18.71,5.08-33.75,5.63C2186.18,607.09,2183.12,607.15,2179.76,607.15Zm-1.68-149.22c-4.11,0-8.52.21-13.3.67-15.4,1.5-36.49,3.56-55.17,18.61-23.79,19.18-41.38,58.23-28.3,87.89,17.52,39.76,81,41.81,107.52,40.85,14.92-.55,24-3,33.52-5.59a185.83,185.83,0,0,1,44.92-7.27c19.5-1,31.94.43,50.78,2.57,6.84.78,14.59,1.66,23.88,2.57,21,2,49.16,3.08,105.35,5.14C2619,609.66,2660,601,2677.72,593a77.77,77.77,0,0,0,7.26-3.75c53-30,87.67-106.16,65.48-170.4-1.29-3.76-25.83-71.64-81.28-78-25.33-2.88-52.79,7.56-70.63,25.32-30.6,30.46-21.18,70.78-44,78.62-12.28,4.23-20.78-5.49-45.31-18-11.06-5.63-93.86-46.65-150.58-18.65-10.62,5.23-27.81,16.59-43.31,32.64-16.31,16.89-22.7,30.66-40.65,35.32-11.53,3-23.25,1-25.31.66-7.65-1.35-8.17-3-27.51-9.88-16.38-5.86-22.43-7-25.2-7.46A106.45,106.45,0,0,0,2178.08,457.93Z"/></g><g id="Слой_6" data-name="Слой 6"><path class="cls-5" d="M648.1,2718.51c-1.3-139.68-9.77-785.22-56.21-806-52.08-23.34-95.48-31.12-95.48-31.12l-13-85.59s-30.38,7.78-56.41,0-99.82,7.78-99.82,7.78c-34.72,7.78-91.14,38.9-117.17,155.61s-43.4,0-60.76,70-47.75,241.2-52.08,311.24c0,0-47.74,108.93-56.42,178.94C33.49,2577.74,8.23,2684.5,0,2718.51Z"/><path class="cls-6" d="M507.05,2718.51h2375.8c-2.25-103.54-18.6-767.16-66.48-787.68-51.93-22.25-74.19,222.56-66.76-51.92s-7.43-133.54,0-207.73-89-207.71-89-207.71,44.51-96.45,44.51-126.12-96.45-200.3-96.45-237.39,14.84-133.54,14.84-133.54l-59.35-22.25-14.83-66.77L2378.7,862.56l-14.84,89H2237.73l-133.54-37.09L1941,988.68l-22.26-89-422.85,7.41L1458.79,959,1354.93,988.7l-81.6,133.53-155.8,29.7-51.93,81.6-89,44.51-59.37,192.89-96.44-81.6-7.42-44.51-126.12-22.31-44.51,81.61v96.43l-74.18,89-14.84,163.21L487,1871.48,427.6,2316.6l51.94,230Z"/><path class="cls-7" d="M2067.1,988.68s-59.35,89-66.76,133.53,0,29.68,0,29.68-37.1-29.68-81.61,14.83l-81.61,81.61s59.36-126.12,126.12-140.95S1985.5,1018.36,2067.1,988.68Z"/><path class="cls-8" d="M2816.38,1930.83s0,207.71-37.1,267.06,7.41,133.54,7.41,237.41-7.41,200.29-7.41,200.29,29.67-178,29.67-281.91S2816.38,1930.83,2816.38,1930.83Z"/><path class="cls-7" d="M917.23,1470.93,895,1582.16l-59.34,74.18v126.12l-66.77,29.68L642.74,2227.58l-7.41,244.81-22.26-341.25,111.28-363.52L694.67,1686h81.6s-37.09-103.86,0-141,74.19-22.26,74.19-22.26v-59.29Z"/><path class="cls-9" d="M2378.68,862.56l170.63,14.84,14.83,66.77s55.64,0,59.35,22.25-14.84,133.51-14.84,133.51,89,181.75,96.45,237.39-44.51,126.12-44.51,126.12l-74.2,44.51-255.93-289.29,33.38-267.07Z"/><path class="cls-9" d="M2148.7,1663.77S1967,1567.32,1959.53,1508s3.71-148.37,3.71-148.37l-63.06-29.68,159.5-66.77s11.13-141,48.23-144.67,129.82-166.91,129.82-166.91h126.11L2375,1281.71l-26,33.39H2171Z"/><path class="cls-10" d="M1770.46,945.13s-84.44,64.58-139.08,44.71-124.19,44.7-154,34.77-18.61-65.6-18.61-65.6.94-45.28,37.1-51.94,402.22-18.11,422.85-7.41,22.26,89,22.26,89Z"/><path class="cls-6" d="M349.91,1834.39s-67,16.54-79.52,111.3l-12.55,94.75-43.94,9,40.8,27.06-9.42,90.25s-31.38,0-31.38,22.56-12.56,72.19-12.56,72.19l43.94-58.66s28.25,13.53,40.8-81.22,22-157.92,22-157.92h56.5l-48.12-27.06v-45.13Z"/><path class="cls-7" d="M1978.08,973.84s-66.77,51.94-66.77,81.6l-44.51,89-37.09,29.68-51.93,126.11c-37.09,37.09-103.86,281.9-103.86,281.9l-29.68,44.51-7.42,118.7-44.51,66.77-7.41,118.69-29.68,29.67,7.42,126.12-51.93,74.19,14.84,148.37-66.77,37.09-37.1,341.25c-44.5-14.83-22.25-304.16-22.25-304.16s66.77-89,74.19-133.53-37.09-96.44-37.09-96.44,103.86-37.09,81.6-133.53-133.53-178-133.53-178,59.35,14.84,103.85,66.77,59.35,22.25,66.77-29.67,29.68-133.54,44.51-185.47,66.77-141,66.77-185.46-81.6-74.19-81.6-74.19l103.86-14.88s44.51-66.77,51.93-103.86-59.35,0-59.35,0l59.35-66.77c14.83-74.18,59.35-29.67,59.35-89s-7.43-81.61-7.43-81.61,14.84,7.42,37.1-44.51-51.93-37.1-51.93-37.1V929.33s97.1-5.31,119.35-5.31,21.6,20.15-15.49,35S1978.08,973.84,1978.08,973.84Z"/><path class="cls-11" d="M1273.32,1122.21S1114.76,1119,1080,1143.83s-5,69.54-39.75,79.48-104.32,59.62-104.32,84.45,44.71,79.48,54.65,34.77,44.71-84.45,74.51-84.45,94.38,0,104.32-34.77S1273.32,1122.21,1273.32,1122.21Z"/><path class="cls-7" d="M850.46,2598.49l14.84-237.38,74.19-118.7,29.67-445.11-51.93-66.76,141-200.3,59.35-37.1,37.09-170.63,59.33-96.44,59.35-103.86L1162,1159.31l-51.93,89,51.93,7.41-74.19,29.68-22.21,111.3,37.09,22.23h-141l-7.42,29.67,111.28,14.84-51.93,89L895,1582.16l103.86,7.42-111.28,81.6v96.44l37.1,37.1L820.79,1930.83l103.86-74.18-51.93,118.69L924.65,2005l-51.93,81.6L761.44,2005l118.7,148.37-7.42,133.54L828.2,2390.78l-59.34-44.51,22.26-155.78-66.77-81.62L709.51,2279.5S679.84,2390.78,754,2435.3s59.35,89,59.35,89Z"/><path class="cls-10" d="M687.25,1322.51c-44.36,5.11-69.25,114.42-44.39,119.42s49.67-39.74,84.44-54.64,87.7-30.36,86.07-42.52S731.65,1317.4,687.25,1322.51Z"/><path class="cls-10" d="M677.27,1356c-19.65,29.15-56.41,34.37-68.81,69-8.81,24.62,3.69,49.2-7.64,66.53-5.88,9-18.23,15.1-24.75,25.35-11.7,18.39-22,56.7-27,78.48-8.73,37.63-6.2,76.45,1.39,113.94,3.55,17.56,19.39,10.31,19.71-4.57,1.18-54.42-8.13-103.54,41.1-137,20.46-13.9,38.13-20.65,47.17-44.82,10.81-28.9-6.5-49.24-3.75-77.57,2.62-26.7,26.89-53.1,32.51-80.92,1.11-5.51-4.73-16.08-9.92-8.36Z"/><path class="cls-12" d="M2238.35,1065.39c6.48-59.1,88-50.7,118.14-90.61,25.89-34.32,14.42-80.4,65.67-91.2,21.42-4.52,74-1.44,91.57,9.09,18.07,10.8,16.16,26.48,27.51,39.84,26.05,30.63,79.1,32.65,60.21,89.58-3.1,9.34,2,32.26,15.62,22.56,38.73-27.52,23.72-85.24-2.69-116.24-17.84-20.94-44.38-42.88-64.86-60.24-22.68-19.23-42.68-25.69-72.94-29.08-29.58-3.31-74.86-9.58-99.9,10.4s-15,53.91-29.52,79.24c-31.27,54.47-129.4,62.35-118.24,136.89,1,6.81,8.69,6.56,9.43-.23Z"/><path class="cls-12" d="M2424.15,843.19c-20.81-16.09-38.89-21.55-66-14.85-48.71,12-80,37.18-133,37.63-66.15.57-134.13,20.73-177.53,75.42-4.46,5.63-1.36,28.17,9.18,22.35,11.35-6.26,24.67-16.25,36.49-20.85,27.44-10.66,43.5-5.3,72.91,2.77,33.56,9.21,62.64,17.86,98.41,11.53,59.77-10.58,107.52-60.39,158.16-91,7-4.23,8.13-17.82,1.41-23Z"/><path class="cls-12" d="M1565.88,1438.27c-26.33-21-33.43-33-69.17-24.71-24.18,5.58-45,20.19-61.64,38-26,27.71-35.72,63.14-54.1,95.32-20.1,35.21-28,39.3-62.78,53.34-14.86,6-29.74,7.53-44.47,15.13-75.68,39-61.4,101-80.29,171.62-23,85.87-81.46,153.91-78.3,247.09.61,18,21.37,35.69,29.92,11.49,10.53-29.79,15.47-60.92,26-90.68,14.45-40.74,40.06-70.8,62-106.54,14-22.68,21.81-46.4,29.9-71.74,14-44,25.53-62.63,65.38-86.71,37.13-22.44,57.06-43.85,75.45-84,18.22-39.75,27.09-86.75,58-119,20.2-21.06,68.14-46.49,99.74-31.47,8,3.82,8.94-13.44,4.29-17.13Z"/><path class="cls-12" d="M1445,1907.28c-29.9-139.84-178.58-71.06-226.6,23.93-32.44,64.19-6.94,130.82,2.7,197.06,7,47.91,47.8,79.81,38.37,126.37-1.44,7.08,7.77,16.78,10.78,6.54,16.65-56.66,1.36-85.12-2-134.06-4.06-58.53-16.22-135.25,24.14-179.74,46.92-51.71,85.56-45.08,144.31-26.71,7.32,2.28,9.39-8.42,8.33-13.39Z"/><path class="cls-12" d="M1312.21,2090.72c-9.28-48.19,26.17-57.79,45.14-90.67a78.45,78.45,0,0,0,9.82-31.58c.66-6.37,1.29-39-3.07-31.4,9.46-16.51,11.09-39.23,3.41-56.86-5-11.46-20.67-30.24-35.24-20.66-19.87,13-28.06,30.26-30.17,53.59a99,99,0,0,0,3.9,38.67,84.45,84.45,0,0,0,6.62,17.09q10.19,12.93,1.46,7.18c-5.61,22.65-19.74,41.57-21.77,66.09-1.59,19.3,4.89,36.75,10.55,54.89C1305.72,2106.21,1313.4,2096.9,1312.21,2090.72Z"/><path class="cls-12" d="M711.15,2041.49c15-45,29.74-91.11,51.06-133.45,19.11-38,32.16-57.86,78.36-50.87,44.23,6.69,47.88-110.14-2.64-107.45-52.13,2.78-83.12,48.4-100.08,94.37-9.46,25.6-9.4,51.41-13.35,78.08-5.58,37.66-14.87,76.21-23,113.45C700.11,2042,708.14,2050.53,711.15,2041.49Z"/><path class="cls-12" d="M812.35,1908.52c16.95-12.29,35.76-20.13,49.93-36.12,20.72-23.37,28.91-50.83,30-81.68.63-18.71-10-47.91-31.24-51-22.86-3.28-32.6,20.31-37,38.63-7.8,32.61-1.63,71.57-24.48,99.07-8.31,10-4.51,43.62,12.81,31.06Z"/><path class="cls-12" d="M850.33,1686.44c-1.4-6.56,4.35-11.44,8.27-17.12a48.63,48.63,0,0,1,18.6-16.08c12.24-6.4,22-13.61,25.47-27.76,3.82-15.69-2.57-38.09-20.89-40.54-24-3.2-42.57,24.82-50.4,43.7-10,24-4.57,44.51,5.75,66.74,5.68,12.22,15.13.1,13.2-8.94Z"/><path class="cls-12" d="M129.08,2142.17c7.3-26.41,13.26-60.69,26.76-84.61,8.69-15.38,22.43-20.16,33.44-31.74,23.53-24.77,10.07-48.48,27.68-79.09,13.2-23,51.65-47,69-70.47,25.41-34.44,41.2-36.22,78.29-41.38C378.08,1833,461,1817,463.54,1847.1c.77,9.27,4,19,14.27,20.61l7.06,1.12c11.81,1.85,18.53-16.14,20.05-24.44,10.28-56-27.08-86.17-80.18-85.43-72.48,1-131.77,7.92-173.44,67.74-19.36,27.79-49.75,42.75-67.1,72.72-13.83,23.9-7.26,61.78-19.55,81.33,14-22.2-25.29,2.21-32,15.27-18.8,36.83-10.49,102-13.84,139.93-.54,6.15,7.38,16.46,10.21,6.22Z"/><path class="cls-12" d="M278.07,1947.15c2.12-11.18,11.18-25.6,16.43-35.91,4.88-9.59,6.3-19.19,13.91-26.76,9.72-9.64,18.27-15.6,21.7-30.1,3.16-13.38-.8-29.16-11.1-38.73-24.78-23-51.92,11.7-59.81,33.84a95.74,95.74,0,0,0-4.12,47c2.72,15.6,10.3,32.57,10.32,48.35,0,9.74,10.6,13.26,12.67,2.29Z"/><path class="cls-12" d="M414.94,1950c-1.56-12.13,17.62-24.13,25.83-30.94-.57.48,16.14-13.59,7.71-10.34,5.36-2.06,10,1.85,16.58-1.06,30.43-13.44,26.26-70.46,10.9-91.92-16.32-22.83-41.15-4.42-43,18.52-.26,3.14-1.93,24.3-.13,13.29-1.13,6.88-.18,20.63-2.72,26.58,3.22-7.53-5.11,3-6.15,4.17-4.83,5.52-10,10.55-14,16.74-12.39,19.21-19,43.06-9.35,64.65,6.23,13.91,15.47-.5,14.3-9.69Z"/><path class="cls-12" d="M2349.45,887c-11.58-16.1-35.45-10.8-51.55-9.1-34.21,3.52-43.08,46.58-39.94,74.34,1.77,15.64,6.4,29.92,17,41.82,8.85,9.92,23.92,18.26,37.32,10.67,16.92-9.58,29.68-21,39.88-37.75,10.49-17.23,12.23-34.78,9.91-54.46.37,3.23.75,6.46,1.12,9.7a50.94,50.94,0,0,0-1.5-12.3c-2.35-9.37-6.72-15.19-12.27-22.88Z"/><path class="cls-10" d="M1908.07,895.48c-56.39-60.41-129.54-74.38-207.64-51.57-74,21.62-166.5,19-195.68,103.35-5,14.56-1.6,38.38,16.59,41,34.78,4.92,46.64-17.43,78.23-31,28.76-12.33,63.24-14,93.44-23.53,36.71-11.64,67-23.1,106-20,38.71,3,67,10.1,105.38,6.2,11.23-1.13,9.14-18.6,3.73-24.39Z"/><path class="cls-10" d="M1586.1,814.93a81.42,81.42,0,0,0,3.55-10q-12.92-11-25.83-21.94c1.36-3.8-1.27,2.58-1.41,2.87a34.47,34.47,0,0,0-3.18,11.82l35,13.7q1-12,2.08-24-12.87-18.63-25.76-37.21c-6.3,2.15-10.92,8.51-14.36,14-5.75,9.19-7,19.8-8,30.3-1.6,16.65.23,34.4,11.84,47.4,8.45,9.47,23.32,13.19,33.16,2.74,20.3-21.56,24.77-58.42,11.48-84.93-6.4-12.79-16.53-26.48-32.8-22.74s-23.13,21.33-26,36c-4.68,23.55-1.07,46.4,15.73,64.12,5.6,5.89,17.34,7.89,24.56,4.27l.64-.32c17.26-8.67,23.7-31.36,23.14-49.29-.07-2.42-.14-4.83-.22-7.25l-54.37,36.2c.43.47.86.94,1.28,1.42a29.52,29.52,0,0,1-5.13-15.59c-2.41-12.34-2.25-20.12,3.87-32.19l50.26,18.78c-1.47-10.33-3-21.18-9.39-29.86-3.82-5.19-8.64-11.43-15-13.3-17-5-26.09,16.63-24.82,30.28q1.14,12.4,2.3,24.81c1,10.29,5.24,27.25,18.64,26.92,12.44-.3,18.19-17.72,17.29-27.8-.49-5.42-.67-11.18-3-16.21l-2.9-5.4c-1.13-1.84-1-1.88.29-.1-2.93-8.44-12.74-14.33-20.22-7.51-8.39,7.62-7.57,20.93-4.51,30.63a82.68,82.68,0,0,0,3.39,9.91c4.79,10.38,13.82,9.16,18.34-.45Z"/><path class="cls-10" d="M1640.23,776.63c-6.23,11.52-7.57,22.4-7.57,35.24,0,12,7.42,34.9,23.15,33.44,16.28-1.52,21.48-21,21.48-34.54v-14c0-12-7.43-34.9-23.15-33.44-16.29,1.51-21.48,21-21.48,34.53v14l44.63-1.1c0-10-.6-19.59-5.33-28.71-3.41-6.56-7.17-13-15-14.27-6.9-1.13-13.33,2.65-16.68,8.84Z"/><path class="cls-10" d="M1843.05,737.86c-18.31.84-24.59,21.57-28.18,36.08l53,9.56,1.24-20.36c.57-9.28-3.5-22.17-8.89-29.76-4.16-5.87-12-12.67-20-11.92-19.84,1.84-27.39,26.27-26.77,43,.25,6.76.49,13.54.74,20.3.55,15.12,7.06,36.48,24.25,39.56,16.75,3,26.71-16,28.71-30,1.82-12.7,1.64-26.37-3.8-38.25-3.64-8-10.11-18.74-20.29-18.27Z"/><path class="cls-10" d="M2283.08,805.23a73.82,73.82,0,0,0-.68-28.79c-2.74-12.49-12.53-33.16-28.69-31.65-16.92,1.57-23.89,18.55-27.1,33-2.15,9.72-1.17,19.11.46,28.8,2.13,12.61,13,33.25,28.81,31.78,16.5-1.53,24.72-18.58,27.2-33.16Z"/><path class="cls-10" d="M2459.58,761.27c-.48-.84-1-1.68-1.45-2.53-4.56-8-15.8-13.69-24.63-9.21-7.2,3.65-11.82,10.45-14.55,17.91-6.73,18.46-3,46.44,16.36,55.71l2,1c12.21,5.85,23.88-7.65,27.2-17.8,5-15.33,3-31.16-4.93-45Z"/><path class="cls-10" d="M1156.91,1109.35c41.92,0,40.14-95-2.33-95C1112.67,1014.35,1114.44,1109.35,1156.91,1109.35Z"/><path class="cls-9" d="M1575,800.38c-4.48,29.11-5.17,60.87-5.4,90.29-.1,13.46,14.48,13.11,14.37-.35-.23-29.42-1-60.93-5.43-90-.4-2.61-3.16-2.39-3.54.09Z"/><path class="cls-9" d="M1648.2,807.33c-2.88,24.4.45,49.25-2.09,73.7-1.13,10.89,11.56,13.08,10.41,1.88-2.58-25.13.62-50.64-2.28-75.73-.52-4.44-5.54-4.11-6,.15Z"/><path class="cls-9" d="M1834.61,775.13c.11,33.06,3.87,64.37-1,97.4-2.68,18.37,18.2,19.1,15.48-.38-4.53-32.43-4.13-65.83-10.33-98-.72-3.69-4.19-2.22-4.19,1Z"/><path class="cls-9" d="M2257.84,784.71c-10.55,28.88-6.67,64.75-6.11,94.86.22,11.59,12.19,8.61,10.6-2.46-4.35-30.57,1.49-60.39-.32-90.8C2261.86,783.83,2259.07,781.31,2257.84,784.71Z"/><path class="cls-9" d="M2438.24,804.93c-.34,10.57-.52,21.13-1.76,31.66-.93,7.75-2,14.1,1.83,21.13a3.26,3.26,0,0,0,5.73-.14c3.93-6.89,2.35-13.64,1.53-21.22-1.14-10.5-1.33-21-1.67-31.58-.18-5.33-5.49-5.11-5.66.15Z"/><path class="cls-9" d="M1148.5,1069.41c-1.11,23.59-2.86,47.21-2.44,70.84.2,11.22,11.72,10.82,11.92-.29.42-23.6-1.33-47.17-2.45-70.73-.31-6.64-6.72-6.34-7,.18Z"/><path class="cls-7" d="M1585.13,2718.51a256.4,256.4,0,0,1-3.94-42.11c0-29.68,26-100.16,26-100.16s26-126.12,48.22-155.79S1685,2238.7,1685,2238.7s-26,33.38-26,81.6-55.63,85.32-63.06,159.5-29.67,115-51.93,137.25c-17,17-12.37,74.93-9.23,101.46Z"/><polygon class="cls-9" points="486.95 2609.63 506.75 2718.51 580.47 2718.51 590.82 2539.15 635.33 2472.39 646.45 2142.26 690.96 2049.53 716.93 1919.7 776.28 1793.59 835.63 1782.46 850.47 1593.29 894.97 1582.16 917.23 1470.88 820.79 1389.28 703.95 1576.59 739.18 1737.95 653.88 1732.39 683.55 1838.1 624.19 1867.77 672.42 1867.77 653.88 2012.44 613.07 2097.76 627.9 2212.74 564.85 2286.93 609.36 2442.7 583.39 2509.47 501.79 2539.15 572.27 2535.44 561.14 2602.21 486.95 2609.63"/><polygon class="cls-5" points="3154.95 2718.51 3740.99 2718.51 3544.32 2128.84 3276.1 2003.3 3231.4 1806.04 2985.52 1734.31 2918.46 1823.97 2731.06 1797.6 2627.89 2110.89 2873.76 2613.02 3154.95 2718.51"/><polygon class="cls-6" points="3736.72 2718.51 3387.86 2181.36 3454.92 2471.94 3298.45 2449.58 3007.87 1957.83 2873.76 2181.36 3183.22 2718.51 3736.72 2718.51"/><path class="cls-9" d="M2616,2718.51l148.43-550.29L2757,2016.15s0-189.18,5.57-250.38c4.52-49.7,9.27-142.81-31.53-198.45s-70.47-103.85-70.47-103.85l-89,37.08,26,200.31-66.77,107.56-33.39,341.26L2438,2579.93l7.11,138.56Z"/><path class="cls-9" d="M2701.88,2718.51h181.21c-.37-87.87-3-578.38-14.79-656-13-85.31-13-141-53.79-153.93-17.75-5.66-33.37,5.56-44.51,38.94s-13,68.63-13,68.63l7.42,152.07-51.93,178Z"/><path class="cls-7" d="M3090.85,2338.85l-89-22.25V2116.3s-11.12-74.19-133.53-53.79l14.54,656h304.72Z"/><path class="cls-7" d="M2872.57,2718.51c-20.23-30.31-67.44-88.45-123-71.79-74.19,22.25-7.43-259.65-7.43-259.65l-37.08-51.93-7.43-356.09s-59.34,296.75-74.18,474.79-59.35,178-59.35,178l-12.37,86.63Z"/><path class="cls-7" d="M1978.08,1418.93l141,22.25v89c-22.26,37.09,29.68,133.54,29.68,133.54l14.83-126.12,7.41-222.5h178l29.68,111.27,89,81.61,51.93,7.41,29.68,74.19L2490,1604.42l44.51,96.44L2519.67,1775l-59.34,22.26,14.83,66.77,44.51,29.67v66.76l-37.09,51.93-89,244.83,29.67,96.42-51.93,44.52-14.84,192.89-26.82,127.42h131.72l21.22-275.81,66.77-185.44s-22.26-326.43,7.41-385.78,96.44-215.14,44.51-304.16,59.36-103.85,59.36-103.85,44.51-118.7,7.41-170.63-170.63-7.42-170.63-7.42l-133.59-74.19,178-37.08H2356.42v-51.94l252.23-22.28-252.23-14.84,7.42-133.53-118.69,59.37-7.42,163.21L2119,1181.56l-7.42,111.28L1985.5,1315.1l126.11,14.83v66.76Z"/><path class="cls-9" d="M2298,2718.51c-8.87-31.87-35.64-134.53-23.17-171.94,14.84-44.52,18.55-115,0-118.69s51.93-89,55.64-118.7,3.71-178-55.64-200.31S2163.55,2031,2163.55,2031s81.61,100.16,100.15,129.83,26,155.79,0,152.08-48.22-44.52-85.31-26-48.22,115-29.67,152.07,44.5,118.7,29.67,137.24-400.6,0-445.11,3.71-92.74,18.54-111.28,66.77c-11.2,29.09-21,55.44-27,71.79Z"/><path class="cls-9" d="M946.9,2631.93,895,2643l-3.14,75.5h42.53l5.13-38.4,40.79-7.42,29.68-196.6,115-166.91,18.55-133.54,70.47-44.5s-22.26-178,14.84-215.15,137.24-77.89,137.24-77.89l18.55,3.71s59.35,37.1,89,63.06,44.51,66.77,44.51,66.77l40.8-37.1,63-263.36,66.77-207.71s-18.55-26-103.86-29.68-103.86-3.71-126.12,33.39-85.31,174.33-129.83,178-141,252.27-141,252.27l-44.51,122.41-44.52,7.41c-22.25,26-92.72,189.18-92.72,189.18,7.41,29.67,44.5,92.73,44.5,92.73l-29.67,63.06s-11.13-55.64-55.64-55.64-66.76,70.47-66.76,70.47l107.58,14.86s-33.39,66.77-44.52,118.7S946.9,2631.93,946.9,2631.93Z"/><path class="cls-9" d="M41.32,2678.25,6.73,2718.51H553.32l-72.15-847s-44,72.33-61.58,155.79-57.18,361.63-57.18,361.63-88,33.38-114.36,33.38-39.59,172.49-39.59,172.49L102.9,2611.49l114.35,22.25v39Z"/></g></svg>