<svg id="Layer_1" data-name="Layer 1" xmlns="http://www.w3.org/2000/svg" xmlns:xlink="http://www.w3.org/1999/xlink" viewBox="0 0 3740.99 3179.38"><defs><style>.cls-1{fill:url(#linear-gradient);}.cls-2{fill:#f1f7f8;}.cls-3{fill:#fff;}.cls-4{fill:#cbe9f0;}.cls-5{fill:#d19d8d;}.cls-6{fill:#c98c72;}.cls-7{fill:#844937;}.cls-8{fill:#3a79c6;}.cls-9{fill:#a86852;}.cls-10{fill:#6ba576;}.cls-11{fill:#5e8e68;}.cls-12{fill:#83a588;}</style><linearGradient id="linear-gradient" y1="-2787.68" x2="3740.99" y2="-2787.68" gradientTransform="translate(0 4658.9)" gradientUnits="userSpaceOnUse"><stop offset="1" stop-color="#fff"/><stop offset="1"/></linearGradient></defs><g id="Layer_2" data-name="Layer 2"><rect class="cls-1" y="567.23" width="3740.99" height="2607.99"/></g><g id="Layer_1-2" data-name="Layer 1-2"><g id="Layer_3" data-name="Layer 3"><path class="cls-2" d="M2564.48,627.32c-71.47,51-147.58-3.67-215.61,46.65-28,20.76-31.28,42.2-48.35,69.47-88,140.55-388.3,186.15-598.88,97.86-59.73-25.12-91.81-77.45-154.76-71.92-54.48,4.78-73.34,41.94-153.6,47.33a268.38,268.38,0,0,1-95.75-10.63,163.57,163.57,0,0,1-34.28-14.5c-36-20.93-37.21-27.18-50.2-29.3-32.11-5-41.85,47.15-104,74.22-11.67,5.08-49,20.76-83.64,5.58-4.76-2.1-28-12.34-30.94-30.69-2.81-17.81,15.41-32.9,12.39-36-3.44-3.53-27.91,15.51-39.48,23.71-50.46,35.74-134.55,62.56-173.4,32.09-13.82-10.84-25.23-31.52-24.19-51.14,1.15-21.75,17-32.68,12.61-39-6.61-9.61-45.17,12.56-95.93,23.62-32.84,7.14-75.32,16.39-112.93,1.49-54.32-21.52-89-89.63-87.06-152.23,2.8-93.66,87.23-143.41,99.5-150.67,47.65-28.12,96-29,107.77-28.9,15.41,0,40.12-.3,69.19,10.32,24.13,8.82,41.36,21.46,45,17.26S796,445.65,790,421c-1.75-7.19-7.2-29,3.17-46.73,17-29,61.54-28.14,67-28,37.33,1.08,59.76,24.18,67.53,16.21,5.93-6.09-7.57-19.14-7.16-44.64,0-4.06.88-30.89,19.83-50s48-23.47,70-18.73c29.76,6.44,39.24,28,51.77,22.95,13.13-5.31,6.16-30.69,16.93-66.07,3.21-10.56,17.87-61,59.59-80.12,47.89-22,96.48,3.63,103.47,7.45,48.38,26.51,60.7,77,82.78,72.13,13.44-3,11-21.22,31.31-32.55,20.74-11.61,48.92-6.71,67.46,3.33,39.62,21.45,37.69,67.67,54.83,68.5C1500,245.8,1502.25,173,1548,113c64.69-85,177.48-93.48,186-94,7.3-.45,121.47-5.71,199.41,74.54,40.09,41.26,58.75,92.91,63.32,106.37,22.24,65.5,10.52,105.33,32.71,115.19,25,11.17,47.34-37.16,119.53-59,19.1-5.76,66.4-20.06,117-.61,61,23.48,87,80.8,89.18,85.77,19.62,45.05,3.19,69.57,23,83.48,26.5,18.6,60.7-22.61,126.29-11.38,11.56,2,38.74,7,64.36,27.51,4.57,3.66,53.06,43.82,48.24,101.19C2612.81,591.81,2571.32,622.42,2564.48,627.32Z"/><path class="cls-3" d="M1940.38,887.74c-84.56,0-168-15.51-239.17-45.36-22.26-9.33-40.53-22.32-58.2-34.87-29.23-20.78-56.82-40.38-96-37-24.06,2.12-41.41,10.76-59.78,19.89-23,11.46-49.06,24.45-93.83,27.46a270.21,270.21,0,0,1-96.16-10.69,165.93,165.93,0,0,1-34.52-14.62c-15.84-9.16-25.14-15.66-31.31-20-8.1-5.66-11.47-8-18.5-9.11-15.31-2.4-25.4,8.8-39.37,24.33-14.46,16.07-32.46,36.06-64,49.8-32.42,14.11-60.87,16-84.57,5.59-18.47-8.12-29.71-19.3-31.62-31.51-1.82-11.6,4.86-22,9.29-28.82,1.59-2.45,3.76-5.82,3.41-6.54-2.17-2.22-24.06,13.75-31.25,19-2.5,1.81-4.8,3.49-6.75,4.87-54.49,38.59-136.8,61.8-174.76,32-12.62-10-25.76-30.48-24.61-52.12.63-12.09,5.71-20.93,9.43-27.37,2.87-5,5-8.61,3.36-10.91-3.29-4.8-18.57.5-37.84,7.2-15.65,5.43-35.13,12.18-56.83,16.89-33.72,7.34-75.68,16.47-113.59,1.4-52-20.62-89.8-86.5-87.79-153.32,2.7-90.07,80.78-140.27,100-151.59,101.83-60,213-5.58,221.73-1.11-21.39-25.67-27.48-59.8-14.84-87.48,17.17-37.6,65.87-56.49,97.14-42.43a54,54,0,0,1,21,17.5c-2.55-12.73-10.19-58.74,17.57-98,6.3-8.9,18.22-25.27,40.42-33.24,1.66-.59,41.07-14,72.06,10.5a71.3,71.3,0,0,1,21.09,28c-9.94-64.17,24.13-126.21,80.84-150.45,58.86-25.11,128.94-3.78,161.68,42,14.61,20.46,19.1,42.13,20.54,56.72a76.19,76.19,0,0,1,91.54-56.53q2.85.66,5.66,1.55c30.58,9.46,43.92,35.18,47.45,42a90.59,90.59,0,0,1,9.26,52.25,226.7,226.7,0,0,1,20.61-80.25C1540.83,74.64,1639.58,21.45,1734,17.79c13.62-.53,124.25-3.39,200.3,74.89,37.84,39.07,57.1,87.7,63.59,106.81,10,29.41,13.09,53.21,15.58,72.34,3,23.06,4.82,37,16.5,42.18s22.81-3.3,39.77-16.12c17.68-13.38,41.89-31.7,79-42.9,20-6,66.78-20.18,117.72-.59,60.94,23.45,87,80,89.81,86.37,9.62,22.06,10.64,39.06,11.47,52.62.85,14.18,1.4,23.55,11.21,30.4,12.18,8.54,25.83,4,44.73-2.19,20.72-6.82,46.51-15.34,81.1-9.39,10.52,1.8,38.51,6.59,64.87,27.74,5.5,4.41,53.51,44.64,48.66,102.18-4,47.57-41.57,77.87-53,86C2529.05,654.06,2491.42,653,2455,652c-36.94-1-71.82-2-105.4,22.86-19.36,14.32-26.73,28.9-35.25,45.78-3.74,7.42-7.62,15.1-12.81,23.38C2259.68,810.91,2167,860.2,2047.29,879.37A679.85,679.85,0,0,1,1940.38,887.74ZM1555.94,767.89c10.28,0,28.9-4.52,88.4,37.76,17.57,12.56,35.75,25.41,57.75,34.63,100.81,42.28,226.47,55.69,344.77,36.81,119.13-19,211.17-67.91,252.69-134.2,5.15-8.21,9-15.84,12.72-23.2,8.66-17.15,16.13-32,35.93-46.6,34.21-25.29,71.13-24.29,106.84-23.3,36,1,73.25,2,108.8-23.37l.66.94-.66-.94c11.21-8,48.1-37.75,52-84.34,4.75-56.32-42.41-95.89-47.8-100.21-25.9-20.79-53.47-25.51-63.84-27.28-34-5.83-59.51,2.57-80,9.31-18.79,6.19-33.63,11.09-46.77,1.88-10.65-7.48-11.21-17.81-12.15-32.09-.8-13.43-1.82-30.16-11.21-51.84-2.73-6.28-28.46-62-88.53-85.1-50.19-19.31-96.45-5.34-116.21.63-36.7,11.16-60.72,29.3-78.25,42.54-17,12.83-29.22,22.12-42,16.39s-14.82-20.93-17.82-44c-2.48-19-5.61-42.71-15.49-71.89-17.72-52.19-49.68-93-63.07-106-77.49-75.17-190.6-60.86-201.38-59.32-9.22,1.31-115.9,17.9-164.32,95.41-9.4,15.07-27.86,50.43-44.12,87.89-18.09,41.63-26.76,70.41-38,69.66s-9.13-29.19-36.44-57.55c-6.62-6.85-20.69-21.41-41.08-25.74-39.48-8.37-73.86,27.76-77.6,31.79A189.54,189.54,0,0,0,1283.84,194c-17.43-11.45-76.58-50.31-132.37-25.75-40.55,17.85-56.23,59-60.85,71.15a144.26,144.26,0,0,0-6.1,80.26c-2.4-3.88-23.07-36-61.67-39.07-9.09-.74-29.55-.68-47.45,12.24-22.9,16.56-28,44.43-32.36,67.73a169.35,169.35,0,0,0-2.81,30.23,94.89,94.89,0,0,0-33.72-12.05c-10.47-1.59-42.29-6.43-62.38,13.63-20.59,20.55-14.6,53.95-13.69,59.07,6.18,34.51,33,52.33,28.91,57.54-4.5,5.75-35.93-17.24-70-30.28-53.41-20.46-123.2-20.23-181.06,9.08-19.28,9.76-90.42,45.84-103.46,122.67-10.28,60.76,18.22,132.39,69,154.67,46,20.16,109.19-.88,112.26-1.53,21.55-4.7,41-11.43,56.58-16.83,22.6-7.84,36.25-12.55,40.54-6.33,2.38,3.47,0,7.6-3.28,13.32-3.59,6.25-8.52,14.82-9.12,26.37-1.11,20.82,11.53,40.61,23.74,50.22,37.14,29.16,118.22,6.06,172-32.08,1.92-1.4,4.21-3,6.7-4.86,20.8-15.16,31.24-21.84,34.27-18.73,1.74,1.78-.1,4.63-3.12,9.34-4.21,6.57-10.66,16.49-9,27.25,1.78,11.4,12.53,22,30.27,29.76,23.08,10.13,50.92,8.24,82.69-5.58,31.1-13.54,48.93-33.33,63.24-49.24,13.91-15.45,24.89-27.65,41.44-25.11,7.55,1.19,11.28,3.78,19.45,9.49,6.49,4.53,15.42,10.74,31.14,19.86A163.68,163.68,0,0,0,1297.86,805a267.27,267.27,0,0,0,95.3,10.6,217,217,0,0,0,46.7-8c19.74-5.77,27.62-11.28,46.25-19.21,28.88-12.24,48.07-20.46,69.83-20.53Z"/><path class="cls-4" d="M1068.22,643.39c-65.21,20.92-109-46.68-232.54-74.25-99.88-22.32-167.17.5-181.73,5.74-29.18,10.5-99.51,35.78-110.3,93.35-4.92,26,2.94,56.17,21.36,76.2,41.5,45.12,128.35,25.12,138.75,22.52,31.74-7.74,54.15-22,61.41-13.57,7.53,8.72-13.16,28-11.77,56,1.5,30.26,27.82,51.82,40.42,62.14,60.75,49.83,189.3,48.68,258.39,46.64,189.53-5.58,289-9.6,409.51-67.63a686.34,686.34,0,0,0,87.44-50.33,755.33,755.33,0,0,0,160.66,70.43c50.73,15.48,246.45,75.21,444.27-2.88,83.15-32.81,67.16-50.69,148.1-77.21,107.16-35.1,179.39-18.22,262.49-79.15,22.69-16.63,40.32-34.75,51.49-59.67,1.4-3.25,30.2-70.08-6.38-124.24-30.51-45.19-86.72-52.21-95.09-53.13-100.91-11.06-143.93,94.34-256.76,100.45-50.35,2.79-92.8-15.44-121.16-31.59-21.71,23.72-191.41,203-425.76,174.88-84.48-10.09-149.68-43.82-191.64-71.44a504.39,504.39,0,0,1-95.21,40.18c-38.73,11.84-83.33,25.48-126.92,20.1-92.23-11.4-148-104-160.79-126.62C1125.12,600.89,1103.76,632,1068.22,643.39Z"/><path class="cls-3" d="M3200.19,608.54c-120.09,101.07-354.26,70.53-519.86-1.4a757.21,757.21,0,0,1-111-59.64c19.3,1.51,32.72-.76,36.94-8.58,10.89-20.13-38.4-79-98.1-101.17-56.06-20.81-108.7-4.35-129.57,3.54-4.57-19.68-18-65.06-58.86-104.12-8.92-8.5-64.87-60.13-142.85-57.09-40.07,1.56-70,17.06-114.19,40a476.67,476.67,0,0,0-69.8,44.21,349.21,349.21,0,0,0-120.53-50.53c-26.43-5.58-113-22.51-205.61,19.78-20.57,9.39-84.54,41.54-131,109.82C1492.46,507.09,1495,558,1465.1,563c-30.67,5.08-40.48-47.24-101.57-70.2-61.66-23.19-123.33,3.23-134.72,8.1-74.28,31.85-98.75,99-106.65,94.39-10.16-5.91,11.45-127,107.49-176.29,8.31-4.27,84.69-42,159.5-7.17a159.71,159.71,0,0,1,45,31.52,77.7,77.7,0,0,1-8.41-41c3-35.85,33.37-68,70.16-74.7,34.37-6.32,61.39,11.84,67.53,16.19-4.36-9.18-10.29-25.51-7.17-44.64,6.48-39.59,48.48-71.23,89.8-68.75,25.6,1.55,43.82,15.76,51.78,23,0-14.55,2.09-40.14,16.93-66.06,28-49.11,89.62-77.91,148.18-67.62,60.14,10.58,91.8,57.94,97.66,67.06,3.34-6.89,12.42-23.22,31.31-32.54,29-14.33,58.42-.83,67.46,3.33,40.88,18.79,52.94,61.38,54.84,68.5,6.67-27.76,23.64-81.66,69.47-131.81,19.14-20.93,82.17-87.72,186-94,7.3-.44,121.45-5.69,199.4,74.54,32.14,33.08,47.86,70,63.32,106.39a480.73,480.73,0,0,1,32.7,115.19c12-16.74,38.4-48.67,83.18-68.94,6.24-2.79,104.92-45.77,178.86,5.73,34.55,24.08,50.3,59.45,63.64,89.39a291,291,0,0,1,23,83.49c20.5-8.21,59.7-20.53,108.22-14.37,21.85,2.79,53.26,6.77,82.42,30.49,2.92,2.37,53,44.4,48.24,101.2C3249.06,566.6,3216,595.22,3200.19,608.54Z"/><path class="cls-4" d="M2440.8,546.12c55.85-18.62,112.25-3.07,128.49,1.4,67.87,18.71,110.72,63.79,126.13,50.22,6.33-5.58,1.52-15,2.51-35.27,0,0,2.25-45,34.84-83.37,35.52-41.85,102.31-56.29,157.06-39.06,61.57,19.34,89,72.85,97.57,89.58,52.71,102.84-10.4,208.82-14.4,215.28-7.11,11.46-33.81,52.17-88.3,82.53-24.4,13.59-62.47,29.62-333.43,19.73-78.93-2.88-118.4-4.32-147.79-7.18-49.2-4.78-67.44-9-104.52-7.17-59,3-65.49,16.33-110,17.94-16.09.58-124,4.34-151.36-57.42-17.94-40.45,4.92-95.42,39.87-123.46,25.83-20.72,54.66-23.89,77.71-26.12,71.48-7,86.08,26.7,132.94,20.41C2357.28,654.87,2355.1,574.69,2440.8,546.12Z"/><path class="cls-3" d="M2176.26,851.68c-42,0-116.89-7.45-139.32-58.07-18.6-42,6.32-97.25,40.08-124.34,26.53-21.28,56.34-24.17,78.11-26.27,39-3.78,61.15,4.46,80.71,11.74,16.63,6.18,31,11.53,52.2,8.68,34-4.56,50.32-26,69.22-50.93,18.71-24.65,39.92-52.6,83.31-67.07,37.2-12.4,80.56-11.92,128.94,1.4,32.92,9.08,59.48,24.08,80.83,36.13s37,20.93,44.66,14.26c3.65-3.19,3.3-8,2.71-15.9a144.94,144.94,0,0,1-.45-18.87c0-.44,2.62-45.67,35-83.8,34.53-40.67,100.91-57.2,157.84-39.33,61.86,19.44,89.05,72.55,98,89.95,53.47,104.29-11.65,211.48-14.45,216-11.83,19.08-39.07,55.2-88.58,82.77-28.4,15.83-75.33,29.3-333.81,19.82-78.87-2.87-118.42-4.31-147.83-7.17-13-1.27-23.91-2.49-33.49-3.58-26.34-3-43.73-5-70.93-3.59a260.74,260.74,0,0,0-62.65,10.09c-13.48,3.64-26.22,7.09-47.3,7.85C2185.26,851.59,2181,851.68,2176.26,851.68Zm-2.35-208.18c-5.76,0-11.94.29-18.64.93-21.58,2.1-51.14,5-77.32,26-33.34,26.76-58,81.23-39.66,122.61,24.55,55.47,113.52,58.33,150.69,57,20.91-.77,33.63-4.18,47-7.8a261.74,261.74,0,0,1,63-10.14c27.33-1.39,44.76.6,71.17,3.59,9.59,1.08,20.45,2.31,33.47,3.58,29.43,2.79,68.89,4.3,147.65,7.17,240.66,8.78,298.12-3.3,323-14.46a110.93,110.93,0,0,0,10.17-5.24c74.28-41.85,122.87-148.1,91.77-237.72-1.8-5.25-36.2-100-113.91-108.82-35.5-4-74,10.55-99,35.33-42.88,42.49-29.68,98.74-61.66,109.68-17.22,5.9-29.13-7.66-63.51-25.11-15.5-7.86-131.54-65.08-211-26-14.88,7.29-39,23.14-60.7,45.53-22.85,23.57-31.81,42.78-57,49.28-16.16,4.18-32.58,1.39-35.47.92-10.72-1.88-11.45-4.19-38.55-13.78-23-8.18-31.44-9.77-35.32-10.41a149.81,149.81,0,0,0-26.07-2.08Z"/></g><g id="Слой_6" data-name="Слой 6"><path class="cls-5" d="M648.1,3178c-1.3-139.68-9.77-785.22-56.21-806-52.08-23.34-95.48-31.12-95.48-31.12l-13-85.59s-30.38,7.78-56.41,0-99.82,7.78-99.82,7.78C292.46,2270.85,236,2302,210,2418.68s-43.4,0-60.76,70-47.75,241.2-52.08,311.24c0,0-47.74,108.93-56.42,178.94C33.49,3037.19,8.23,3144,0,3178Z"/><path class="cls-6" d="M507.05,3178h2375.8c-2.25-103.54-18.6-767.16-66.48-787.68-51.93-22.25-74.19,222.56-66.76-51.92s-7.43-133.54,0-207.73-89-207.71-89-207.71,44.51-96.45,44.51-126.12-96.45-200.3-96.45-237.39,14.84-133.54,14.84-133.54l-59.35-22.25-14.83-66.77L2378.7,1322l-14.84,89H2237.73l-133.54-37.09L1941,1448.13l-22.26-89-422.85,7.41-37.1,51.91-103.86,29.7-81.6,133.53-155.8,29.7L1065.6,1693l-89,44.51L917.23,1930.4l-96.44-81.6-7.42-44.51L687.25,1782l-44.51,81.61V1960l-74.18,89-14.84,163.21L487,2330.93l-59.4,445.12,51.94,230Z"/><path class="cls-7" d="M2067.1,1448.13s-59.35,89-66.76,133.53,0,29.68,0,29.68-37.1-29.68-81.61,14.83l-81.61,81.61s59.36-126.12,126.12-141S1985.5,1477.81,2067.1,1448.13Z"/><path class="cls-8" d="M2816.38,2390.28s0,207.71-37.1,267.06,7.41,133.54,7.41,237.41-7.41,200.29-7.41,200.29S2809,2917,2809,2813.13,2816.38,2390.28,2816.38,2390.28Z"/><path class="cls-7" d="M917.23,1930.38,895,2041.61l-59.34,74.18v126.12l-66.77,29.68L642.74,2687l-7.41,244.81-22.26-341.25L724.35,2227l-29.68-81.62h81.6s-37.09-103.86,0-141,74.19-22.26,74.19-22.26V1922.9Z"/><path class="cls-9" d="M2378.68,1322l170.63,14.84,14.83,66.77s55.64,0,59.35,22.25-14.84,133.51-14.84,133.51,89,181.75,96.45,237.39-44.51,126.12-44.51,126.12l-74.2,44.51L2330.46,1678.1l33.38-267.1Z"/><path class="cls-9" d="M2148.7,2123.22s-181.7-96.45-189.17-155.77,3.71-148.37,3.71-148.37l-63.06-29.68,159.5-66.77s11.13-141,48.23-144.67,129.82-166.91,129.82-166.91h126.11L2375,1741.16l-26,33.39H2171Z"/><path class="cls-10" d="M1770.46,1404.58s-84.44,64.58-139.08,44.71-124.19,44.7-154,34.77-18.61-65.6-18.61-65.6.94-45.28,37.1-51.94,402.22-18.11,422.85-7.41,22.26,89,22.26,89Z"/><path class="cls-6" d="M349.91,2293.84s-67,16.54-79.52,111.3l-12.55,94.75-43.94,9L254.7,2536l-9.42,90.25s-31.38,0-31.38,22.56S201.34,2721,201.34,2721l43.94-58.66s28.25,13.53,40.8-81.22,22-157.92,22-157.92h56.5l-48.12-27.06V2351Z"/><path class="cls-7" d="M1978.08,1433.29s-66.77,51.94-66.77,81.6l-44.51,89-37.09,29.68-51.93,126.11c-37.09,37.09-103.86,281.9-103.86,281.9l-29.68,44.51-7.42,118.7-44.51,66.77-7.41,118.69-29.68,29.67,7.42,126.12-51.93,74.19,14.84,148.37-66.77,37.09-37.1,341.25c-44.5-14.83-22.25-304.16-22.25-304.16s66.77-89,74.19-133.53-37.09-96.44-37.09-96.44,103.86-37.09,81.6-133.53-133.53-178-133.53-178,59.35,14.84,103.85,66.77,59.35,22.25,66.77-29.67,29.68-133.54,44.51-185.47,66.77-141,66.77-185.46-81.6-74.19-81.6-74.19l103.86-14.88s44.51-66.77,51.93-103.86-59.35,0-59.35,0l59.35-66.77c14.83-74.18,59.35-29.67,59.35-89s-7.43-81.61-7.43-81.61,14.84,7.42,37.1-44.51-51.93-37.1-51.93-37.1v-66.75s97.1-5.31,119.35-5.31,21.6,20.15-15.49,35S1978.08,1433.29,1978.08,1433.29Z"/><path class="cls-11" d="M1273.32,1581.66s-158.56-3.21-193.32,21.62-5,69.54-39.75,79.48-104.32,59.62-104.32,84.45,44.71,79.48,54.65,34.77,44.71-84.45,74.51-84.45,94.38,0,104.32-34.77S1273.32,1581.66,1273.32,1581.66Z"/><path class="cls-7" d="M850.46,3057.94l14.84-237.38,74.19-118.7,29.67-445.11L917.23,2190l141-200.3,59.35-37.1,37.09-170.6,59.33-96.44,59.35-103.86L1162,1618.76l-51.93,89,51.93,7.41-74.19,29.68-22.21,111.3,37.09,22.23h-141l-7.42,29.67,111.28,14.84-51.93,89L895,2041.61,998.86,2049l-111.28,81.6V2227l37.1,37.1L820.79,2390.28l103.86-74.18-51.93,118.69,51.93,29.66-51.93,81.6-111.28-81.6,118.7,148.37-7.42,133.54L828.2,2850.23l-59.34-44.51,22.26-155.78-66.77-81.62L709.51,2739S679.84,2850.28,754,2894.8s59.35,89,59.35,89Z"/><path class="cls-10" d="M687.25,1782c-44.36,5.11-69.25,114.42-44.39,119.42s49.67-39.74,84.44-54.64,87.7-30.36,86.07-42.52S731.65,1776.85,687.25,1782Z"/><path class="cls-10" d="M677.27,1815.45c-19.65,29.15-56.41,34.37-68.81,69-8.81,24.62,3.69,49.2-7.64,66.53-5.88,9-18.23,15.1-24.75,25.35-11.7,18.39-22,56.7-27,78.48-8.73,37.63-6.2,76.45,1.39,113.94,3.55,17.56,19.39,10.31,19.71-4.57,1.18-54.42-8.13-103.54,41.1-137,20.46-13.9,38.13-20.65,47.17-44.82,10.81-28.9-6.5-49.24-3.75-77.57,2.62-26.7,26.89-53.1,32.51-80.92,1.11-5.51-4.73-16.08-9.92-8.36Z"/><path class="cls-12" d="M2238.35,1524.84c6.48-59.1,88-50.7,118.14-90.61,25.89-34.32,14.42-80.4,65.67-91.2,21.42-4.52,74-1.44,91.57,9.09,18.07,10.8,16.16,26.48,27.51,39.84,26.05,30.63,79.1,32.65,60.21,89.58-3.1,9.34,2,32.26,15.62,22.56,38.73-27.52,23.72-85.24-2.69-116.24-17.84-20.94-44.38-42.88-64.86-60.24-22.68-19.23-42.68-25.69-72.94-29.08-29.58-3.31-74.86-9.58-99.9,10.4s-15,53.91-29.52,79.24c-31.27,54.47-129.4,62.35-118.24,136.89,1,6.81,8.69,6.56,9.43-.23Z"/><path class="cls-12" d="M2424.15,1302.64c-20.81-16.09-38.89-21.55-66-14.85-48.71,12-80,37.18-133,37.63-66.15.57-134.13,20.73-177.53,75.42-4.46,5.63-1.36,28.17,9.18,22.35,11.35-6.26,24.67-16.25,36.49-20.85,27.44-10.66,43.5-5.3,72.91,2.77,33.56,9.21,62.64,17.86,98.41,11.53,59.77-10.58,107.52-60.39,158.16-91,7-4.23,8.13-17.82,1.41-23Z"/><path class="cls-12" d="M1565.88,1897.72c-26.33-21-33.43-33-69.17-24.71-24.18,5.58-45,20.19-61.64,38-26,27.71-35.72,63.14-54.1,95.32-20.1,35.21-28,39.3-62.78,53.34-14.86,6-29.74,7.53-44.47,15.13-75.68,39-61.4,101-80.29,171.62-23,85.87-81.46,153.91-78.3,247.09.61,18,21.37,35.69,29.92,11.49,10.53-29.79,15.47-60.92,26-90.68,14.45-40.74,40.06-70.8,62-106.54,14-22.68,21.81-46.4,29.9-71.74,14-44,25.53-62.63,65.38-86.71,37.13-22.44,57.06-43.85,75.45-84,18.22-39.75,27.09-86.75,58-119,20.2-21.06,68.14-46.49,99.74-31.47,8,3.82,8.94-13.44,4.29-17.13Z"/><path class="cls-12" d="M1445,2366.73c-29.9-139.84-178.58-71.06-226.6,23.93-32.44,64.19-6.94,130.82,2.7,197.06,7,47.91,47.8,79.81,38.37,126.37-1.44,7.08,7.77,16.78,10.78,6.54,16.65-56.66,1.36-85.12-2-134.06-4.06-58.53-16.22-135.25,24.14-179.74,46.92-51.71,85.56-45.08,144.31-26.71,7.32,2.28,9.39-8.42,8.33-13.39Z"/><path class="cls-12" d="M1312.21,2550.17c-9.28-48.19,26.17-57.79,45.14-90.67a78.4,78.4,0,0,0,9.82-31.58c.66-6.37,1.29-39-3.07-31.4,9.46-16.51,11.09-39.23,3.41-56.86-5-11.46-20.67-30.24-35.24-20.66-19.87,13-28.06,30.26-30.17,53.59a99,99,0,0,0,3.9,38.67,84.45,84.45,0,0,0,6.62,17.09q10.19,12.93,1.46,7.18c-5.61,22.65-19.74,41.57-21.77,66.09-1.59,19.3,4.89,36.75,10.55,54.89C1305.72,2565.66,1313.4,2556.35,1312.21,2550.17Z"/><path class="cls-12" d="M711.15,2500.94c15-45,29.74-91.11,51.06-133.45,19.11-38,32.16-57.86,78.36-50.87,44.23,6.69,47.88-110.14-2.64-107.45-52.13,2.78-83.12,48.4-100.08,94.37-9.46,25.6-9.4,51.41-13.35,78.08-5.58,37.66-14.87,76.21-23,113.45C700.11,2501.45,708.14,2510,711.15,2500.94Z"/><path class="cls-12" d="M812.35,2368c16.95-12.29,35.76-20.13,49.93-36.12,20.72-23.37,28.91-50.83,30-81.68.63-18.71-10-47.91-31.24-51-22.86-3.28-32.6,20.31-37,38.63-7.8,32.61-1.63,71.57-24.48,99.07-8.31,10-4.51,43.62,12.81,31.06Z"/><path class="cls-12" d="M850.33,2145.89c-1.4-6.56,4.35-11.44,8.27-17.12a48.72,48.72,0,0,1,18.6-16.08c12.24-6.4,22-13.61,25.47-27.76,3.82-15.69-2.57-38.09-20.89-40.54-24-3.2-42.57,24.82-50.4,43.7-10,24-4.57,44.51,5.75,66.74,5.68,12.22,15.13.1,13.2-8.94Z"/><path class="cls-12" d="M129.08,2601.62c7.3-26.41,13.26-60.69,26.76-84.61,8.69-15.38,22.43-20.16,33.44-31.74,23.53-24.77,10.07-48.48,27.68-79.09,13.2-23,51.65-47,69-70.47,25.41-34.44,41.2-36.22,78.29-41.38,13.83-1.88,96.75-17.88,99.29,12.22.77,9.27,4,19,14.27,20.61l7.06,1.12c11.81,1.85,18.53-16.14,20.05-24.44,10.28-56-27.08-86.17-80.18-85.43-72.48,1-131.77,7.92-173.44,67.74-19.36,27.79-49.75,42.75-67.1,72.72-13.83,23.9-7.26,61.78-19.55,81.33,14-22.2-25.29,2.21-32,15.27-18.8,36.83-10.49,102-13.84,139.93-.54,6.15,7.38,16.46,10.21,6.22Z"/><path class="cls-12" d="M278.07,2406.6c2.12-11.18,11.18-25.6,16.43-35.91,4.88-9.59,6.3-19.19,13.91-26.76,9.72-9.64,18.27-15.6,21.7-30.1,3.16-13.38-.8-29.16-11.1-38.73-24.78-23-51.92,11.7-59.81,33.84a95.76,95.76,0,0,0-4.12,47c2.72,15.6,10.3,32.57,10.32,48.35,0,9.74,10.6,13.26,12.67,2.29Z"/><path class="cls-12" d="M414.94,2409.45c-1.56-12.13,17.62-24.13,25.83-30.94-.57.48,16.14-13.59,7.71-10.34,5.36-2.06,10,1.85,16.58-1.06,30.43-13.44,26.26-70.46,10.9-91.92-16.32-22.83-41.15-4.42-43,18.52-.26,3.14-1.93,24.3-.13,13.29-1.13,6.88-.18,20.63-2.72,26.58,3.22-7.53-5.11,3-6.15,4.17-4.83,5.52-10,10.55-14,16.74-12.39,19.21-19,43.06-9.35,64.65,6.23,13.91,15.47-.5,14.3-9.69Z"/><path class="cls-12" d="M2349.45,1346.45c-11.58-16.1-35.45-10.8-51.55-9.1-34.21,3.52-43.08,46.58-39.94,74.34,1.77,15.64,6.4,29.92,17,41.82,8.85,9.92,23.92,18.26,37.32,10.67,16.92-9.58,29.68-21,39.88-37.75,10.49-17.23,12.23-34.78,9.91-54.46.37,3.23.75,6.46,1.12,9.7a50.94,50.94,0,0,0-1.5-12.3c-2.35-9.37-6.72-15.19-12.27-22.88Z"/><path class="cls-10" d="M1908.07,1354.93c-56.39-60.41-129.54-74.38-207.64-51.57-74,21.62-166.5,19-195.68,103.35-5,14.56-1.6,38.38,16.59,41,34.78,4.92,46.64-17.43,78.23-31,28.76-12.33,63.24-14,93.44-23.53,36.71-11.64,67-23.1,106-20,38.71,3,67,10.1,105.38,6.2,11.23-1.13,9.14-18.6,3.73-24.39Z"/><path class="cls-10" d="M1586.1,1274.38a80.26,80.26,0,0,0,3.55-10q-12.92-11-25.83-21.94c1.36-3.8-1.27,2.58-1.41,2.87a34.47,34.47,0,0,0-3.18,11.82l35,13.7q1-12,2.08-24-12.87-18.63-25.76-37.21c-6.3,2.15-10.92,8.51-14.36,14-5.75,9.19-7,19.8-8,30.3-1.6,16.65.23,34.4,11.84,47.4,8.45,9.47,23.32,13.19,33.16,2.74,20.3-21.56,24.77-58.42,11.48-84.93-6.4-12.79-16.53-26.48-32.8-22.74s-23.13,21.33-26,36c-4.68,23.55-1.07,46.4,15.73,64.12,5.6,5.89,17.34,7.89,24.56,4.27l.64-.32c17.26-8.67,23.7-31.36,23.14-49.29-.07-2.42-.14-4.83-.22-7.25l-54.37,36.2c.43.47.86.94,1.28,1.42a29.5,29.5,0,0,1-5.13-15.59c-2.41-12.34-2.25-20.12,3.87-32.19l50.26,18.78c-1.47-10.33-3-21.18-9.39-29.86-3.82-5.19-8.64-11.43-15-13.3-17-5-26.09,16.63-24.82,30.28q1.14,12.4,2.3,24.81c1,10.29,5.24,27.25,18.64,26.92,12.44-.3,18.19-17.72,17.29-27.8-.49-5.42-.67-11.18-3-16.21l-2.9-5.4c-1.13-1.84-1-1.88.29-.1-2.93-8.44-12.74-14.33-20.22-7.51-8.39,7.62-7.57,20.93-4.51,30.63a82.68,82.68,0,0,0,3.39,9.91c4.79,10.38,13.82,9.16,18.34-.45Z"/><path class="cls-10" d="M1640.23,1236.08c-6.23,11.52-7.57,22.4-7.57,35.24,0,12,7.42,34.9,23.15,33.44,16.28-1.52,21.48-21,21.48-34.54v-14c0-12-7.43-34.9-23.15-33.44-16.29,1.51-21.48,21-21.48,34.53v14l44.63-1.1c0-10-.6-19.59-5.33-28.71-3.41-6.56-7.17-13-15-14.27-6.9-1.13-13.33,2.65-16.68,8.84Z"/><path class="cls-10" d="M1843.05,1197.31c-18.31.84-24.59,21.57-28.18,36.08l53,9.56,1.24-20.36c.57-9.28-3.5-22.17-8.89-29.76-4.16-5.87-12-12.67-20-11.92-19.84,1.84-27.39,26.27-26.77,43,.25,6.76.49,13.54.74,20.3.55,15.12,7.06,36.48,24.25,39.56,16.75,3,26.71-16,28.71-30,1.82-12.7,1.64-26.37-3.8-38.25-3.64-8-10.11-18.74-20.29-18.27Z"/><path class="cls-10" d="M2283.08,1264.68a73.82,73.82,0,0,0-.68-28.79c-2.74-12.49-12.53-33.16-28.69-31.65-16.92,1.57-23.89,18.55-27.1,33-2.15,9.72-1.17,19.11.46,28.8,2.13,12.61,13,33.25,28.81,31.78,16.5-1.53,24.72-18.58,27.2-33.16Z"/><path class="cls-10" d="M2459.58,1220.72c-.48-.84-1-1.68-1.45-2.53-4.56-8-15.8-13.69-24.63-9.21-7.2,3.65-11.82,10.45-14.55,17.91-6.73,18.46-3,46.44,16.36,55.71l2,1c12.21,5.85,23.88-7.65,27.2-17.8,5-15.33,3-31.16-4.93-45Z"/><path class="cls-10" d="M1156.91,1568.8c41.92,0,40.14-95-2.33-95C1112.67,1473.8,1114.44,1568.8,1156.91,1568.8Z"/><path class="cls-9" d="M1575,1259.83c-4.48,29.11-5.17,60.87-5.4,90.29-.1,13.46,14.48,13.11,14.37-.35-.23-29.42-1-60.93-5.43-90-.4-2.61-3.16-2.39-3.54.09Z"/><path class="cls-9" d="M1648.2,1266.78c-2.88,24.4.45,49.25-2.09,73.7-1.13,10.89,11.56,13.08,10.41,1.88-2.58-25.13.62-50.64-2.28-75.73-.52-4.44-5.54-4.11-6,.15Z"/><path class="cls-9" d="M1834.61,1234.58c.11,33.06,3.87,64.37-1,97.4-2.68,18.37,18.2,19.1,15.48-.38-4.53-32.43-4.13-65.83-10.33-98-.72-3.69-4.19-2.22-4.19,1Z"/><path class="cls-9" d="M2257.84,1244.16c-10.55,28.88-6.67,64.75-6.11,94.86.22,11.59,12.19,8.61,10.6-2.46-4.35-30.57,1.49-60.39-.32-90.8C2261.86,1243.28,2259.07,1240.76,2257.84,1244.16Z"/><path class="cls-9" d="M2438.24,1264.38c-.34,10.57-.52,21.13-1.76,31.66-.93,7.75-2,14.1,1.83,21.13a3.26,3.26,0,0,0,5.73-.14c3.93-6.89,2.35-13.64,1.53-21.22-1.14-10.5-1.33-21-1.67-31.58-.18-5.33-5.49-5.11-5.66.15Z"/><path class="cls-9" d="M1148.5,1528.86c-1.11,23.59-2.86,47.21-2.44,70.84.2,11.22,11.72,10.82,11.92-.29.42-23.6-1.33-47.17-2.45-70.73-.31-6.64-6.72-6.34-7,.18Z"/><path class="cls-7" d="M1585.13,3178a256.3,256.3,0,0,1-3.94-42.11c0-29.68,26-100.16,26-100.16s26-126.12,48.22-155.79S1685,2698.15,1685,2698.15s-26,33.38-26,81.6-55.63,85.32-63.06,159.5-29.67,115-51.93,137.25c-17,17-12.37,74.93-9.23,101.46Z"/><polygon class="cls-9" points="486.95 3069.08 506.75 3177.96 580.47 3177.96 590.82 2998.6 635.33 2931.84 646.45 2601.71 690.96 2508.98 716.93 2379.15 776.28 2253.04 835.63 2241.91 850.47 2052.74 894.97 2041.61 917.23 1930.33 820.79 1848.73 703.95 2036.04 739.18 2197.4 653.88 2191.84 683.55 2297.55 624.19 2327.22 672.42 2327.22 653.88 2471.89 613.07 2557.21 627.9 2672.19 564.85 2746.38 609.36 2902.15 583.39 2968.92 501.79 2998.6 572.27 2994.89 561.14 3061.66 486.95 3069.08"/><polygon class="cls-5" points="3154.95 3177.96 3740.99 3177.96 3544.32 2588.29 3276.1 2462.75 3231.4 2265.49 2985.52 2193.76 2918.46 2283.42 2731.06 2257.05 2627.89 2570.34 2873.76 3072.47 3154.95 3177.96"/><polygon class="cls-6" points="3736.72 3177.96 3387.86 2640.81 3454.92 2931.39 3298.45 2909.03 3007.87 2417.28 2873.76 2640.81 3183.22 3177.96 3736.72 3177.96"/><path class="cls-9" d="M2616,3178l148.43-550.29L2757,2475.6s0-189.18,5.57-250.38c4.52-49.7,9.27-142.81-31.53-198.45s-70.47-103.85-70.47-103.85l-89,37.08,26,200.31-66.77,107.56-33.39,341.26L2438,3039.38l7.11,138.56Z"/><path class="cls-9" d="M2701.88,3178h181.21c-.37-87.87-3-578.38-14.79-656-13-85.31-13-141-53.79-153.93-17.75-5.66-33.37,5.56-44.51,38.94s-13,68.63-13,68.63l7.42,152.07-51.93,178Z"/><path class="cls-7" d="M3090.85,2798.3l-89-22.25v-200.3s-11.12-74.19-133.53-53.79l14.54,656h304.72Z"/><path class="cls-7" d="M2872.57,3178c-20.23-30.31-67.44-88.45-123-71.79-74.19,22.25-7.43-259.65-7.43-259.65l-37.08-51.93-7.43-356.09s-59.34,296.75-74.18,474.79-59.35,178-59.35,178L2551.73,3178Z"/><path class="cls-7" d="M1978.08,1878.38l141,22.25v89c-22.26,37.09,29.68,133.54,29.68,133.54l14.83-126.12,7.41-222.5h178l29.68,111.27,89,81.61,51.93,7.41,29.68,74.19L2490,2063.87l44.51,96.44-14.84,74.14-59.34,22.26,14.83,66.77,44.51,29.67v66.76l-37.09,51.93-89,244.83,29.67,96.42-51.93,44.52-14.84,192.89-26.82,127.42h131.72l21.22-275.81,66.77-185.44s-22.26-326.43,7.41-385.78,96.44-215.14,44.51-304.16,59.36-103.85,59.36-103.85,44.51-118.7,7.41-170.63-170.63-7.42-170.63-7.42l-133.59-74.19,178-37.08H2356.42v-51.94l252.23-22.28-252.23-14.84,7.42-133.53-118.69,59.37-7.42,163.21L2119,1641l-7.42,111.28-126.08,22.26,126.11,14.83v66.76Z"/><path class="cls-9" d="M2298,3178c-8.87-31.87-35.64-134.53-23.17-171.94,14.84-44.52,18.55-115,0-118.69s51.93-89,55.64-118.7,3.71-178-55.64-200.31-111.28-77.87-111.28-77.87,81.61,100.16,100.15,129.83,26,155.79,0,152.08-48.22-44.52-85.31-26-48.22,115-29.67,152.07,44.5,118.7,29.67,137.24-400.6,0-445.11,3.71S1640.54,3058,1622,3106.19c-11.2,29.09-21,55.44-27,71.79Z"/><path class="cls-9" d="M946.9,3091.38,895,3102.45l-3.14,75.5h42.53l5.13-38.4,40.79-7.42,29.68-196.6,115-166.91,18.55-133.54,70.47-44.5s-22.26-178,14.84-215.15,137.24-77.89,137.24-77.89l18.55,3.71s59.35,37.1,89,63.06,44.51,66.77,44.51,66.77L1559,2394l63-263.36,66.77-207.71s-18.55-26-103.86-29.68-103.86-3.71-126.12,33.39-85.31,174.33-129.83,178-141,252.27-141,252.27L1143.4,2479.3l-44.52,7.41c-22.25,26-92.72,189.18-92.72,189.18,7.41,29.67,44.5,92.73,44.5,92.73L1021,2831.68S1009.86,2776,965.35,2776s-66.76,70.47-66.76,70.47l107.58,14.86s-33.39,66.77-44.52,118.7S946.9,3091.38,946.9,3091.38Z"/><path class="cls-9" d="M41.32,3137.7,6.73,3178H553.32l-72.15-847s-44,72.33-61.58,155.79-57.18,361.63-57.18,361.63-88,33.38-114.36,33.38-39.59,172.49-39.59,172.49L102.9,3070.94l114.35,22.25v39Z"/></g></g></svg>