<svg id="Слой_6" data-name="Слой 6" xmlns="http://www.w3.org/2000/svg" viewBox="0 0 3740.99 2000"><defs><style>.cls-1{fill:#d1a698;}.cls-2{fill:#c99680;}.cls-3{fill:#845344;}.cls-4{fill:#5186c6;}.cls-5{fill:#a87361;}.cls-6{fill:#75a57d;}.cls-7{fill:#658e6e;}.cls-8{fill:#88a58d;}</style></defs><path class="cls-1" d="M648.1,1998.58c-1.3-139.68-9.77-785.22-56.21-806-52.08-23.34-95.48-31.12-95.48-31.12l-13-85.59s-30.38,7.78-56.41,0-99.82,7.78-99.82,7.78c-34.72,7.78-91.14,38.9-117.17,155.61s-43.4,0-60.76,70-47.75,241.2-52.08,311.24c0,0-47.74,108.93-56.42,178.94C33.49,1857.81,8.23,1964.57,0,1998.58Z"/><path class="cls-2" d="M507.05,1998.58h2375.8c-2.25-103.54-18.6-767.16-66.48-787.68-51.93-22.25-74.19,222.56-66.76-51.92s-7.43-133.54,0-207.73-89-207.71-89-207.71,44.51-96.45,44.51-126.12-96.45-200.3-96.45-237.39,14.84-133.54,14.84-133.54l-59.35-22.25-14.83-66.77L2378.7,142.63l-14.84,89H2237.73l-133.54-37.09L1941,268.75l-22.26-89-422.85,7.41-37.1,51.94-103.86,29.67-81.6,133.53L1117.53,432l-51.93,81.6-89,44.51L917.23,751l-96.44-81.6-7.42-44.51L687.25,602.58l-44.51,81.61v96.43l-74.18,89-14.84,163.21L487,1151.55l-59.4,445.12,51.94,230Z"/><path class="cls-3" d="M2067.1,268.75s-59.35,89-66.76,133.53,0,29.68,0,29.68-37.1-29.68-81.61,14.83l-81.61,81.61s59.36-126.12,126.12-140.95S1985.5,298.43,2067.1,268.75Z"/><path class="cls-4" d="M2816.38,1210.9s0,207.71-37.1,267.06,7.41,133.54,7.41,237.41-7.41,200.29-7.41,200.29,29.67-178,29.67-281.91S2816.38,1210.9,2816.38,1210.9Z"/><path class="cls-3" d="M917.23,751,895,862.23l-59.34,74.18v126.12l-66.77,29.68L642.74,1507.65l-7.41,244.81-22.26-341.25,111.28-363.52-29.68-81.6h81.6s-37.09-103.86,0-141,74.19-22.26,74.19-22.26V743.54Z"/><path class="cls-5" d="M2378.68,142.63l170.63,14.84,14.83,66.77s55.64,0,59.35,22.25S2608.65,380,2608.65,380s89,181.75,96.45,237.39-44.51,126.12-44.51,126.12L2586.39,788,2330.46,498.73l33.38-267.07Z"/><path class="cls-5" d="M2148.7,943.84S1967,847.39,1959.53,788.05s3.71-148.37,3.71-148.37L1900.18,610l159.5-66.77s11.13-141,48.23-144.67,129.82-166.91,129.82-166.91h126.11L2375,561.78l-26,33.39H2171Z"/><path class="cls-6" d="M1770.46,225.2s-84.44,64.58-139.08,44.71-124.19,44.7-154,34.77-18.61-65.6-18.61-65.6.94-45.28,37.1-51.94,402.22-18.11,422.85-7.41,22.26,89,22.26,89Z"/><path class="cls-2" d="M349.91,1114.46s-67,16.54-79.52,111.3l-12.55,94.75-43.94,9,40.8,27.06-9.42,90.25s-31.38,0-31.38,22.56-12.56,72.19-12.56,72.19l43.94-58.66s28.25,13.53,40.8-81.22,22-157.92,22-157.92h56.5l-48.12-27.06v-45.13Z"/><path class="cls-3" d="M1978.08,253.91s-66.77,51.94-66.77,81.6l-44.51,89-37.09,29.68L1777.78,580.3c-37.09,37.09-103.86,281.9-103.86,281.9l-29.68,44.51-7.42,118.7-44.51,66.77-7.41,118.69-29.68,29.67,7.42,126.12-51.93,74.19,14.84,148.37-66.77,37.09-37.1,341.25c-44.5-14.83-22.25-304.16-22.25-304.16s66.77-89,74.19-133.53-37.09-96.44-37.09-96.44,103.86-37.09,81.6-133.53-133.53-178-133.53-178,59.35,14.84,103.85,66.77,59.35,22.25,66.77-29.67,29.68-133.54,44.51-185.47,66.77-141,66.77-185.46-81.6-74.19-81.6-74.19L1688.76,699s44.51-66.77,51.93-103.86-59.35,0-59.35,0l59.35-66.77c14.83-74.18,59.35-29.67,59.35-89s-7.43-81.61-7.43-81.61,14.84,7.42,37.1-44.51-51.93-37.1-51.93-37.1V209.4s97.1-5.31,119.35-5.31,21.6,20.15-15.49,35S1978.08,253.91,1978.08,253.91Z"/><path class="cls-7" d="M1273.32,402.28S1114.76,399.07,1080,423.9s-5,69.54-39.75,79.48S935.93,563,935.93,587.83s44.71,79.48,54.65,34.77,44.71-84.45,74.51-84.45,94.38,0,104.32-34.77S1273.32,402.28,1273.32,402.28Z"/><path class="cls-3" d="M850.46,1878.56l14.84-237.38,74.19-118.7,29.67-445.11-51.93-66.76,141-200.3,59.35-37.1,37.09-170.63L1214,506.14l59.35-103.86L1162,439.38l-51.93,89,51.93,7.41-74.19,29.68-22.21,111.3L1102.69,699h-141l-7.42,29.67,111.28,14.84-51.93,89L895,862.23l103.86,7.42-111.28,81.6v96.44l37.1,37.1L820.79,1210.9l103.86-74.18-51.93,118.69,51.93,29.68-51.93,81.6-111.28-81.6,118.7,148.37L872.72,1567,828.2,1670.85l-59.34-44.51,22.26-155.78-66.77-81.62-14.84,170.63s-29.67,111.28,44.51,155.8,59.35,89,59.35,89Z"/><path class="cls-6" d="M687.25,602.58C642.89,607.69,618,717,642.86,722s49.67-39.74,84.44-54.64S815,637,813.37,624.84,731.65,597.47,687.25,602.58Z"/><path class="cls-6" d="M677.27,636.08c-19.65,29.15-56.41,34.37-68.81,69-8.81,24.62,3.69,49.2-7.64,66.53-5.88,9-18.23,15.1-24.75,25.35-11.7,18.39-22,56.7-27,78.48-8.73,37.63-6.2,76.45,1.39,113.94,3.55,17.56,19.39,10.31,19.71-4.57,1.18-54.42-8.13-103.54,41.1-137,20.46-13.9,38.13-20.65,47.17-44.82,10.81-28.9-6.5-49.24-3.75-77.57,2.62-26.7,26.89-53.1,32.51-80.92,1.11-5.51-4.73-16.08-9.92-8.36Z"/><path class="cls-8" d="M2238.35,345.46c6.48-59.1,88-50.7,118.14-90.61,25.89-34.32,14.42-80.4,65.67-91.2,21.42-4.52,74-1.44,91.57,9.09,18.07,10.8,16.16,26.48,27.51,39.84,26.05,30.63,79.1,32.65,60.21,89.58-3.1,9.34,2,32.26,15.62,22.56,38.73-27.52,23.72-85.24-2.69-116.24-17.84-20.94-44.38-42.88-64.86-60.24-22.68-19.23-42.68-25.69-72.94-29.08-29.58-3.31-74.86-9.58-99.9,10.4s-15,53.91-29.52,79.24c-31.27,54.47-129.4,62.35-118.24,136.89,1,6.81,8.69,6.56,9.43-.23Z"/><path class="cls-8" d="M2424.15,123.26c-20.81-16.09-38.89-21.55-66-14.85-48.71,12-80,37.18-133,37.63-66.15.57-134.13,20.73-177.53,75.42-4.46,5.63-1.36,28.17,9.18,22.35,11.35-6.26,24.67-16.25,36.49-20.85,27.44-10.66,43.5-5.3,72.91,2.77,33.56,9.21,62.64,17.86,98.41,11.53,59.77-10.58,107.52-60.39,158.16-91,7-4.23,8.13-17.82,1.41-23Z"/><path class="cls-8" d="M1565.88,718.34c-26.33-21-33.43-33-69.17-24.71-24.18,5.58-45,20.19-61.64,38-26,27.71-35.72,63.14-54.1,95.32-20.1,35.21-28,39.3-62.78,53.34-14.86,6-29.74,7.53-44.47,15.13-75.68,39-61.4,101-80.29,171.62-23,85.87-81.46,153.91-78.3,247.09.61,18,21.37,35.69,29.92,11.49,10.53-29.79,15.47-60.92,26-90.68,14.45-40.74,40.06-70.8,62-106.54,14-22.68,21.81-46.4,29.9-71.74,14-44,25.53-62.63,65.38-86.71,37.13-22.44,57.06-43.85,75.45-84,18.22-39.75,27.09-86.75,58-119,20.2-21.06,68.14-46.49,99.74-31.47,8,3.82,8.94-13.44,4.29-17.13Z"/><path class="cls-8" d="M1445,1187.35c-29.9-139.84-178.58-71.06-226.6,23.93-32.44,64.19-6.94,130.82,2.7,197.06,7,47.91,47.8,79.81,38.37,126.37-1.44,7.08,7.77,16.78,10.78,6.54,16.65-56.66,1.36-85.12-2-134.06-4.06-58.53-16.22-135.25,24.14-179.74,46.92-51.71,85.56-45.08,144.31-26.71,7.32,2.28,9.39-8.42,8.33-13.39Z"/><path class="cls-8" d="M1312.21,1370.79c-9.28-48.19,26.17-57.79,45.14-90.67a78.4,78.4,0,0,0,9.82-31.58c.66-6.37,1.29-39-3.07-31.4,9.46-16.51,11.09-39.23,3.41-56.86-5-11.46-20.67-30.24-35.24-20.66-19.87,13.05-28.06,30.26-30.17,53.59a99,99,0,0,0,3.9,38.67,84.45,84.45,0,0,0,6.62,17.09q10.19,12.93,1.46,7.18c-5.61,22.65-19.74,41.57-21.77,66.09-1.59,19.3,4.89,36.75,10.55,54.89C1305.72,1386.28,1313.4,1377,1312.21,1370.79Z"/><path class="cls-8" d="M711.15,1321.56c15-45,29.74-91.11,51.06-133.45,19.11-38,32.16-57.86,78.36-50.87,44.23,6.69,47.88-110.14-2.64-107.45-52.13,2.78-83.12,48.4-100.08,94.37-9.46,25.6-9.4,51.41-13.35,78.08-5.58,37.66-14.87,76.21-23,113.45C700.11,1322.06,708.14,1330.6,711.15,1321.56Z"/><path class="cls-8" d="M812.35,1188.59c16.95-12.29,35.76-20.13,49.93-36.12,20.72-23.37,28.91-50.83,30-81.68.63-18.71-10-47.91-31.24-51-22.86-3.28-32.6,20.31-37,38.63-7.8,32.61-1.63,71.57-24.48,99.07-8.31,10-4.51,43.62,12.81,31.06Z"/><path class="cls-8" d="M850.33,966.51c-1.4-6.56,4.35-11.44,8.27-17.12a48.72,48.72,0,0,1,18.6-16.08c12.24-6.4,22-13.61,25.47-27.76,3.82-15.69-2.57-38.09-20.89-40.54-24-3.2-42.57,24.82-50.4,43.7-10,24-4.57,44.51,5.75,66.74,5.68,12.22,15.13.1,13.2-8.94Z"/><path class="cls-8" d="M129.08,1422.24c7.3-26.41,13.26-60.69,26.76-84.61,8.69-15.38,22.43-20.16,33.44-31.74,23.53-24.77,10.07-48.48,27.68-79.09,13.2-23,51.65-47,69-70.47,25.41-34.44,41.2-36.22,78.29-41.38,13.83-1.92,96.78-17.93,99.29,12.22.77,9.27,4,19,14.27,20.61l7.06,1.12c11.81,1.85,18.53-16.14,20.05-24.44,10.28-56-27.08-86.17-80.18-85.43-72.48,1-131.77,7.92-173.44,67.74-19.36,27.79-49.75,42.75-67.1,72.72-13.83,23.9-7.26,61.78-19.55,81.33,14-22.2-25.29,2.21-32,15.27-18.8,36.83-10.49,102-13.84,139.93-.54,6.15,7.38,16.46,10.21,6.22Z"/><path class="cls-8" d="M278.07,1227.22c2.12-11.18,11.18-25.6,16.43-35.91,4.88-9.59,6.3-19.19,13.91-26.76,9.72-9.64,18.27-15.6,21.7-30.1,3.16-13.38-.8-29.16-11.1-38.73-24.78-23-51.92,11.7-59.81,33.84a95.75,95.75,0,0,0-4.12,47c2.72,15.6,10.3,32.57,10.32,48.35,0,9.74,10.6,13.26,12.67,2.29Z"/><path class="cls-8" d="M414.94,1230.1c-1.56-12.13,17.62-24.13,25.83-30.94-.57.48,16.14-13.59,7.71-10.34,5.36-2.06,10,1.85,16.58-1.06,30.43-13.44,26.26-70.46,10.9-91.92-16.32-22.83-41.15-4.42-43,18.52-.26,3.14-1.93,24.3-.13,13.29-1.13,6.88-.18,20.63-2.72,26.58,3.22-7.53-5.11,3-6.15,4.17-4.83,5.52-10,10.55-14,16.74-12.39,19.21-19,43.06-9.35,64.65,6.23,13.91,15.47-.5,14.3-9.69Z"/><path class="cls-8" d="M2349.45,167.1c-11.58-16.1-35.45-10.8-51.55-9.1-34.21,3.52-43.08,46.58-39.94,74.34,1.77,15.64,6.4,29.92,17,41.82,8.85,9.92,23.92,18.26,37.32,10.67,16.92-9.58,29.68-21,39.88-37.75,10.49-17.23,12.23-34.78,9.91-54.46.37,3.23.75,6.46,1.12,9.7a50.94,50.94,0,0,0-1.5-12.3c-2.35-9.37-6.72-15.19-12.27-22.88Z"/><path class="cls-6" d="M1908.07,175.55c-56.39-60.41-129.54-74.38-207.64-51.57-74,21.62-166.5,19-195.68,103.35-5,14.56-1.6,38.38,16.59,40.95,34.78,4.92,46.64-17.43,78.23-31,28.76-12.33,63.24-14,93.44-23.53,36.71-11.64,67-23.1,106-20,38.71,3,67,10.1,105.38,6.2,11.23-1.13,9.14-18.6,3.73-24.39Z"/><path class="cls-6" d="M1586.1,95a80.26,80.26,0,0,0,3.55-10q-12.92-11-25.83-21.94c1.36-3.8-1.27,2.58-1.41,2.87a34.47,34.47,0,0,0-3.18,11.82l35,13.7q1-12,2.08-24-12.87-18.62-25.76-37.21c-6.3,2.15-10.92,8.51-14.36,14-5.75,9.19-7,19.8-8,30.3-1.6,16.65.23,34.4,11.84,47.4,8.45,9.47,23.32,13.19,33.16,2.74,20.3-21.56,24.77-58.42,11.48-84.93-6.4-12.79-16.53-26.48-32.8-22.74s-23.13,21.33-26,36c-4.68,23.55-1.07,46.4,15.73,64.12,5.6,5.89,17.34,7.89,24.56,4.27l.64-.32c17.26-8.67,23.7-31.36,23.14-49.29-.07-2.42-.14-4.83-.22-7.25l-54.37,36.2c.43.47.86.94,1.28,1.42a29.5,29.5,0,0,1-5.13-15.59c-2.41-12.34-2.25-20.12,3.87-32.19l50.26,18.78c-1.47-10.33-3-21.18-9.39-29.86-3.82-5.19-8.64-11.43-15-13.3-17-5-26.09,16.63-24.82,30.28q1.14,12.41,2.3,24.81c1,10.29,5.24,27.25,18.64,26.92,12.44-.3,18.19-17.72,17.29-27.8-.49-5.42-.67-11.18-3-16.21l-2.9-5.4c-1.13-1.84-1-1.88.29-.1-2.93-8.44-12.74-14.33-20.22-7.51-8.39,7.62-7.57,20.93-4.51,30.63a82.68,82.68,0,0,0,3.39,9.91c4.79,10.38,13.82,9.16,18.34-.45Z"/><path class="cls-6" d="M1640.23,56.7c-6.23,11.52-7.57,22.4-7.57,35.24,0,12,7.42,34.9,23.15,33.44,16.28-1.52,21.48-21,21.48-34.54v-14c0-12-7.43-34.9-23.15-33.44-16.29,1.51-21.48,21-21.48,34.53v14l44.63-1.1c0-10-.6-19.59-5.33-28.71-3.41-6.56-7.17-13-15-14.27-6.9-1.13-13.33,2.65-16.68,8.84Z"/><path class="cls-6" d="M1843.05,17.93c-18.31.84-24.59,21.57-28.18,36.08l53,9.56,1.24-20.36c.57-9.28-3.5-22.17-8.89-29.76-4.16-5.87-12-12.67-20-11.92-19.84,1.84-27.39,26.27-26.77,43.05.25,6.76.49,13.54.74,20.3.55,15.12,7.06,36.48,24.25,39.56,16.75,3,26.71-16,28.71-30,1.82-12.7,1.64-26.37-3.8-38.25-3.64-8-10.11-18.74-20.29-18.27Z"/><path class="cls-6" d="M2283.08,85.3a73.82,73.82,0,0,0-.68-28.79c-2.74-12.49-12.53-33.16-28.69-31.65-16.92,1.57-23.89,18.55-27.1,33-2.15,9.72-1.17,19.11.46,28.8,2.13,12.61,13,33.25,28.81,31.78,16.5-1.53,24.72-18.58,27.2-33.16Z"/><path class="cls-6" d="M2459.58,41.34c-.48-.84-1-1.68-1.45-2.53-4.56-8-15.8-13.69-24.63-9.21-7.2,3.65-11.82,10.45-14.55,17.91-6.73,18.46-3,46.44,16.36,55.71l2,1c12.21,5.85,23.88-7.65,27.2-17.8,5-15.33,3-31.16-4.93-45Z"/><path class="cls-6" d="M1156.91,389.42c41.92,0,40.14-95-2.33-95C1112.67,294.42,1114.44,389.42,1156.91,389.42Z"/><path class="cls-5" d="M1575,80.45c-4.48,29.11-5.17,60.87-5.4,90.29-.1,13.46,14.48,13.11,14.37-.35-.23-29.42-1-60.93-5.43-90-.4-2.61-3.16-2.39-3.54.09Z"/><path class="cls-5" d="M1648.2,87.4c-2.88,24.4.45,49.25-2.09,73.7-1.13,10.89,11.56,13.08,10.41,1.88-2.58-25.13.62-50.64-2.28-75.73-.52-4.44-5.54-4.11-6,.15Z"/><path class="cls-5" d="M1834.61,55.2c.11,33.06,3.87,64.37-1,97.4-2.68,18.37,18.2,19.1,15.48-.38-4.53-32.43-4.13-65.83-10.33-98-.72-3.69-4.19-2.22-4.19,1Z"/><path class="cls-5" d="M2257.84,64.78c-10.55,28.88-6.67,64.75-6.11,94.86.22,11.59,12.19,8.61,10.6-2.46-4.35-30.57,1.49-60.39-.32-90.8C2261.86,63.9,2259.07,61.38,2257.84,64.78Z"/><path class="cls-5" d="M2438.24,85c-.34,10.57-.52,21.13-1.76,31.66-.93,7.75-2,14.1,1.83,21.13a3.26,3.26,0,0,0,4.43,1.23,3.3,3.3,0,0,0,1.3-1.37c3.93-6.89,2.35-13.64,1.53-21.22-1.14-10.5-1.33-21-1.67-31.58-.18-5.33-5.49-5.11-5.66.15Z"/><path class="cls-5" d="M1148.5,349.48c-1.11,23.59-2.86,47.21-2.44,70.84.2,11.22,11.72,10.82,11.92-.29.42-23.6-1.33-47.17-2.45-70.73-.31-6.64-6.72-6.34-7,.18Z"/><path class="cls-3" d="M1585.13,1998.58a256.3,256.3,0,0,1-3.94-42.11c0-29.68,26-100.16,26-100.16s26-126.12,48.22-155.79S1685,1518.77,1685,1518.77s-26,33.38-26,81.6-55.63,85.32-63.06,159.5-29.67,115-51.93,137.25c-17,17-12.37,74.93-9.23,101.46Z"/><polygon class="cls-5" points="486.95 1889.7 506.75 1998.58 580.47 1998.58 590.82 1819.22 635.33 1752.46 646.45 1422.33 690.96 1329.6 716.93 1199.77 776.28 1073.66 835.63 1062.53 850.47 873.36 894.97 862.23 917.23 750.95 820.79 669.35 703.95 856.66 739.18 1018.02 653.88 1012.46 683.55 1118.17 624.19 1147.84 672.42 1147.84 653.88 1292.51 613.07 1377.83 627.9 1492.81 564.85 1567 609.36 1722.77 583.39 1789.54 501.79 1819.22 572.27 1815.51 561.14 1882.28 486.95 1889.7"/><polygon class="cls-1" points="3154.95 1998.58 3740.99 1998.58 3544.32 1408.91 3276.1 1283.37 3231.4 1086.11 2985.52 1014.38 2918.46 1104.04 2731.06 1077.67 2627.89 1390.96 2873.76 1893.09 3154.95 1998.58"/><polygon class="cls-2" points="3736.72 1998.58 3387.86 1461.43 3454.92 1752.01 3298.45 1729.65 3007.87 1237.9 2873.76 1461.43 3183.22 1998.58 3736.72 1998.58"/><path class="cls-5" d="M2616,1998.58l148.43-550.29L2757,1296.22s0-189.18,5.57-250.38c4.52-49.7,9.27-142.81-31.53-198.45s-70.47-103.85-70.47-103.85l-89,37.08,26,200.31-66.77,107.56-33.39,341.26L2438,1860l7.11,138.56Z"/><path class="cls-5" d="M2701.88,1998.58h181.21c-.37-87.87-3-578.38-14.79-656-13-85.31-13-140.95-53.79-153.93-17.75-5.66-33.37,5.56-44.51,38.94s-13,68.63-13,68.63l7.42,152.07-51.93,178Z"/><path class="cls-3" d="M3090.85,1618.92l-89-22.25v-200.3s-11.12-74.19-133.53-53.79l14.54,656h304.72Z"/><path class="cls-3" d="M2872.57,1998.58c-20.23-30.31-67.44-88.45-123-71.79-74.19,22.25-7.43-259.65-7.43-259.65l-37.08-51.93-7.43-356.09s-59.34,296.75-74.18,474.79-59.35,178-59.35,178l-12.37,86.63Z"/><path class="cls-3" d="M1978.08,699l141,22.25v89c-22.26,37.09,29.68,133.54,29.68,133.54l14.83-126.12,7.41-222.5h178l29.68,111.27,89,81.61,51.93,7.41,29.68,74.19L2490,884.49l44.51,96.44-14.84,74.18-59.34,22.26,14.83,66.77,44.51,29.67v66.76l-37.09,51.93-89,244.83,29.67,96.42-51.93,44.52-14.84,192.89-26.82,127.42h131.72l21.22-275.81,66.77-185.44s-22.26-326.43,7.41-385.78,96.44-215.14,44.51-304.16,59.36-103.85,59.36-103.85,44.51-118.7,7.41-170.63-170.63-7.42-170.63-7.42L2363.84,491.3l178-37.08H2356.42V402.28L2608.65,380l-252.23-14.84,7.42-133.53L2245.15,291l-7.42,163.21L2119,461.63l-7.42,111.28L1985.5,595.17,2111.61,610v66.76Z"/><path class="cls-5" d="M2298,1998.58c-8.87-31.87-35.64-134.53-23.17-171.94,14.84-44.52,18.55-115,0-118.69s51.93-89,55.64-118.7,3.71-178-55.64-200.31-111.28-77.89-111.28-77.89,81.61,100.16,100.15,129.83,26,155.79,0,152.08-48.22-44.52-85.31-26-48.22,115-29.67,152.07,44.5,118.7,29.67,137.24-400.6,0-445.11,3.71-92.74,18.54-111.28,66.77c-11.2,29.09-21,55.44-27,71.79Z"/><path class="cls-5" d="M946.9,1912,895,1923.08l-3.14,75.5h42.53l5.13-38.4,40.79-7.42,29.68-196.6,115-166.91,18.55-133.54,70.47-44.5s-22.26-178,14.84-215.15,137.24-77.89,137.24-77.89l18.55,3.71s59.35,37.1,89,63.06,44.51,66.77,44.51,66.77l40.8-37.1,63-263.36,66.77-207.71s-18.55-26-103.86-29.68-103.86-3.71-126.12,33.39-85.31,174.33-129.83,178-141,252.27-141,252.27l-44.51,122.41-44.52,7.41c-22.25,26-92.72,189.18-92.72,189.18,7.41,29.67,44.5,92.73,44.5,92.73l-29.67,63.06s-11.13-55.64-55.64-55.64-66.76,70.47-66.76,70.47L1006.26,1682s-33.39,66.77-44.52,118.7S946.9,1912,946.9,1912Z"/><path class="cls-5" d="M41.32,1958.32,6.73,1998.58H553.32l-72.15-847s-44,72.33-61.58,155.79S362.41,1669,362.41,1669s-88,33.38-114.36,33.38-39.59,172.49-39.59,172.49L102.9,1891.56l114.35,22.25v39Z"/></svg>